<svg xmlns="http://www.w3.org/2000/svg" width="720" height="105" xmlns:xlink="http://www.w3.org/1999/xlink" viewBox="0 0 720 105">
  <defs>
    <path id="a" d="M0 70.075h3.528c1.46 0 3.404-2.186 3.404-3.52v-47.61c0-1.336-1.944-3.4-3.404-3.4H0V0h42.69v15.545h-7.298v19.19H55.46v-19.19h-7.295V0h42.69v15.545h-3.528c-1.458 0-3.404 2.065-3.404 3.402v47.608c0 1.335 1.947 3.52 3.404 3.52h3.528v14.94h-42.69v-14.94h7.295v-20.89H35.392v20.89h7.298v14.938H0V70.075z"/>
  </defs>
  <clipPath id="b">
    <use xlink:href="#a" overflow="visible"/>
  </clipPath>
  <g clip-path="url(#b)">
    <defs>
      <path id="c" d="M-280-347h1280v800H-280z"/>
    </defs>
    <clipPath id="d">
      <use xlink:href="#c" overflow="visible"/>
    </clipPath>
    <path d="M-5-5H95.854v95.014H-5z" clip-path="url(#d)"/>
  </g>
  <defs>
    <path id="e" d="M91.59 53.315c0-20.524 15.08-33.64 36.122-33.64 20.92 0 36.004 13.115 36.004 33.64 0 20.403-15.085 32.792-36.004 32.792-21.04 0-36.123-12.388-36.123-32.792m45.246.12c0-11.534-3.65-16.515-9.123-16.515-5.593 0-9.242 4.98-9.242 16.516 0 11.658 3.65 16.88 9.243 16.88 5.474 0 9.123-5.22 9.123-16.88"/>
  </defs>
  <clipPath id="f">
    <use xlink:href="#e" overflow="visible"/>
  </clipPath>
  <g clip-path="url(#f)">
    <defs>
      <path id="g" d="M-280-347h1280v800H-280z"/>
    </defs>
    <clipPath id="h">
      <use xlink:href="#g" overflow="visible"/>
    </clipPath>
    <path d="M86.59 14.675h82.127v76.433H86.59z" clip-path="url(#h)"/>
  </g>
  <defs>
    <path id="i" d="M191.522 78.214c-1.826 3.644-4.378 6.8-6.08 6.8h-17.88v-66.43c0-1.217-1.825-3.038-3.04-3.038h-3.286V0h29.07c2.31 0 3.77 2.064 3.77 5.342v23.32c4.622-5.102 10.46-8.988 19.097-8.988 12.162 0 23.717 7.164 23.717 31.455 0 24.167-11.554 35.095-27.244 35.095-9 0-14.597-3.398-18.124-8.01m2.554-38.5v28.903c1.58.97 3.404 1.58 5.96 1.58 5.23 0 9.972-3.16 9.972-16.76 0-12.148-4.378-14.696-9.85-14.696-1.946 0-4.135.486-6.082.972"/>
  </defs>
  <clipPath id="j">
    <use xlink:href="#i" overflow="visible"/>
  </clipPath>
  <g clip-path="url(#j)">
    <defs>
      <path id="k" d="M-280-347h1280v800H-280z"/>
    </defs>
    <clipPath id="l">
      <use xlink:href="#k" overflow="visible"/>
    </clipPath>
    <path d="M156.236-5h85.653v96.226h-85.654z" clip-path="url(#l)"/>
  </g>
  <defs>
    <path id="m" d="M265.39 78.214c-1.826 3.644-4.378 6.8-6.08 6.8h-17.88v-66.43c0-1.217-1.825-3.038-3.04-3.038h-3.286V0h29.07c2.31 0 3.77 2.064 3.77 5.342v23.32c4.622-5.102 10.46-8.988 19.097-8.988 12.163 0 23.717 7.164 23.717 31.455 0 24.167-11.554 35.095-27.244 35.095-9 0-14.596-3.398-18.123-8.01m2.554-38.5v28.903c1.58.97 3.404 1.58 5.96 1.58 5.23 0 9.972-3.16 9.972-16.76 0-12.148-4.378-14.696-9.85-14.696-1.946 0-4.135.486-6.082.972"/>
  </defs>
  <clipPath id="n">
    <use xlink:href="#m" overflow="visible"/>
  </clipPath>
  <g clip-path="url(#n)">
    <defs>
      <path id="o" d="M-280-347h1280v800H-280z"/>
    </defs>
    <clipPath id="p">
      <use xlink:href="#o" overflow="visible"/>
    </clipPath>
    <path d="M230.104-5h85.653v96.226h-85.653z" clip-path="url(#p)"/>
  </g>
  <g>
    <defs>
      <path id="q" d="M310.955 20.887h72.73v83.8h-72.73z"/>
    </defs>
    <clipPath id="r">
      <use xlink:href="#q" overflow="visible"/>
    </clipPath>
    <g clip-path="url(#r)">
      <defs>
        <path id="s" d="M-280-347h1280v800H-280z"/>
      </defs>
      <clipPath id="t">
        <use xlink:href="#s" overflow="visible"/>
      </clipPath>
      <g clip-path="url(#t)">
        <defs>
          <path id="u" d="M310 20h74v85h-74z"/>
        </defs>
        <clipPath id="v">
          <use xlink:href="#u" overflow="visible"/>
        </clipPath>
        <g clip-path="url(#v)">
          <defs>
            <path id="w" d="M319.103 91.45c5.96-1.458 11.8-3.885 16.663-7.773l-19.58-44.085c-.61-1.335-2.19-2.793-3.53-2.793h-1.7V20.886h37.093v15.91h-6.446l8.516 21.255h.484l6.324-15.79c1.218-2.793.363-5.464-2.797-5.464h-1.093v-15.91h30.65v15.91h-1.824c-1.34 0-3.404 1.94-4.257 3.764l-16.542 34.733c-7.785 16.032-14.353 23.56-21.893 29.393h-20.067V91.45z"/>
          </defs>
          <clipPath id="x">
            <use xlink:href="#w" overflow="visible"/>
          </clipPath>
          <g clip-path="url(#x)">
            <defs>
              <path id="y" d="M310 20h74v85h-74z"/>
            </defs>
            <clipPath id="z">
              <use xlink:href="#y" overflow="visible"/>
            </clipPath>
            <path d="M305.955 15.887h82.73v93.802h-82.73z" clip-path="url(#z)"/>
          </g>
        </g>
      </g>
    </g>
  </g>
  <g>
    <defs>
      <path id="A" d="M403.03 70.075h4.136c1.46 0 3.404-2.186 3.404-3.52v-47.61c0-1.336-1.944-3.4-3.404-3.4h-4.136V0h43.542v15.545h-4.257c-1.34 0-3.286 2.065-3.286 3.402v47.608c0 1.335 1.946 3.52 3.285 3.52h4.257v14.94H403.03v-14.94z"/>
    </defs>
    <clipPath id="B">
      <use xlink:href="#A" overflow="visible"/>
    </clipPath>
    <g clip-path="url(#B)">
      <defs>
        <path id="C" d="M-280-347h1280v800H-280z"/>
      </defs>
      <clipPath id="D">
        <use xlink:href="#C" overflow="visible"/>
      </clipPath>
      <path d="M398.03-5h53.542v95.014H398.03z" clip-path="url(#D)"/>
    </g>
  </g>
  <g>
    <defs>
      <path id="E" d="M447.388 53.193c0-21.13 13.622-33.517 36.61-33.517 9.973 0 17.88 1.332 22.864 3.276v19.31h-14.11c-1.822-3.64-3.524-5.707-8.27-5.707-6.567 0-9.97 4.86-9.97 16.883 0 12.144 3.16 16.88 10.338 16.88 5.107 0 8.39-2.43 10.58-5.342h11.553v15.06c-5.228 3.4-13.135 6.07-23.35 6.07-24.325 0-36.245-11.903-36.245-32.913"/>
    </defs>
    <clipPath id="F">
      <use xlink:href="#E" overflow="visible"/>
    </clipPath>
    <g clip-path="url(#F)">
      <defs>
        <path id="G" d="M-280-347h1280v800H-280z"/>
      </defs>
      <clipPath id="H">
        <use xlink:href="#G" overflow="visible"/>
      </clipPath>
      <path d="M442.388 14.676h69.595v76.43h-69.595z" clip-path="url(#H)"/>
    </g>
  </g>
  <g>
    <defs>
      <path id="I" d="M509.177 53.315c0-20.524 15.082-33.64 36.123-33.64 20.92 0 36.002 13.115 36.002 33.64 0 20.403-15.082 32.792-36.002 32.792-21.04 0-36.123-12.388-36.123-32.792m45.247.12c0-11.534-3.65-16.515-9.123-16.515-5.592 0-9.24 4.98-9.24 16.516 0 11.658 3.648 16.88 9.24 16.88 5.475 0 9.124-5.22 9.124-16.88"/>
    </defs>
    <clipPath id="J">
      <use xlink:href="#I" overflow="visible"/>
    </clipPath>
    <g clip-path="url(#J)">
      <defs>
        <path id="K" d="M-280-347h1280v800H-280z"/>
      </defs>
      <clipPath id="L">
        <use xlink:href="#K" overflow="visible"/>
      </clipPath>
      <path d="M504.177 14.675h82.125v76.433h-82.125z" clip-path="url(#L)"/>
    </g>
  </g>
  <g>
    <defs>
      <path id="M" d="M582.56 70.075h3.04c1.216 0 3.04-1.944 3.04-3.037V39.833c0-1.214-1.825-3.037-3.04-3.037h-3.404V20.888h27.852c2.43 0 4.135 1.823 4.743 8.866 5.594-5.83 13.015-10.08 23.107-10.08 8.516 0 16.542 3.52 16.542 15.302v32.062c0 1.216 1.822 3.037 3.04 3.037h1.947v14.94h-31.503V45.176c0-4.736-2.31-5.706-7.784-5.706-1.095 0-3.04.122-4.986.364v30.24h7.177v14.94h-39.77v-14.94z"/>
    </defs>
    <clipPath id="N">
      <use xlink:href="#M" overflow="visible"/>
    </clipPath>
    <g clip-path="url(#N)">
      <defs>
        <path id="O" d="M-280-347h1280v800H-280z"/>
      </defs>
      <clipPath id="P">
        <use xlink:href="#O" overflow="visible"/>
      </clipPath>
      <path d="M577.196 14.674h87.232v75.34h-87.232z" clip-path="url(#P)"/>
    </g>
  </g>
  <g>
    <defs>
      <path id="Q" d="M662.083 19.674h57.166v66.433h-57.167z"/>
    </defs>
    <clipPath id="R">
      <use xlink:href="#Q" overflow="visible"/>
    </clipPath>
    <g clip-path="url(#R)">
      <defs>
        <path id="S" d="M-280-347h1280v800H-280z"/>
      </defs>
      <clipPath id="T">
        <use xlink:href="#S" overflow="visible"/>
      </clipPath>
      <g clip-path="url(#T)">
        <defs>
          <path id="U" d="M662 19h58v68h-58z"/>
        </defs>
        <clipPath id="V">
          <use xlink:href="#U" overflow="visible"/>
        </clipPath>
        <g clip-path="url(#V)">
          <defs>
            <path id="W" d="M662.206 82.584V64.73h13.985c1.948 3.524 6.328 5.712 11.19 5.712 4.257 0 7.177-1.216 7.177-3.888s-2.068-3.402-10.336-4.253c-13.99-1.578-22.137-6.556-22.137-21.01 0-14.815 11.433-21.616 29.433-21.616 11.8 0 19.097 1.335 25.3 3.278v16.762H702.95c-1.948-2.795-5.23-4.495-10.22-4.495-5.35 0-7.17 1.213-7.17 3.398 0 2.188 1.94 2.913 9.604 3.888 15.932 1.944 24.084 5.706 24.084 20.645s-9.002 22.955-30.41 22.955c-12.89 0-20.918-1.698-26.632-3.52"/>
          </defs>
          <clipPath id="X">
            <use xlink:href="#W" overflow="visible"/>
          </clipPath>
          <g clip-path="url(#X)">
            <defs>
              <path id="Y" d="M662 19h58v68h-58z"/>
            </defs>
            <clipPath id="Z">
              <use xlink:href="#Y" overflow="visible"/>
            </clipPath>
            <path d="M657.083 14.674h67.166v76.433h-67.167z" clip-path="url(#Z)"/>
          </g>
        </g>
      </g>
    </g>
  </g>
</svg>
