<?xml version="1.0" encoding="UTF-8" standalone="no"?>
<svg width="128px" height="199px" viewBox="0 0 128 199" version="1.1" xmlns="http://www.w3.org/2000/svg" xmlns:xlink="http://www.w3.org/1999/xlink">
    <!-- Generator: Sketch 3.7.2 (28276) - http://www.bohemiancoding.com/sketch -->
    <title>Page 1</title>
    <desc>Created with Sketch.</desc>
    <defs>
        <polygon id="path-1" points="23.7623762 24.3092079 23.7623762 0.953465347 4.22104596e-14 0.953465347 0 47.6649505 23.7623762 47.6649505"></polygon>
    </defs>
    <g id="Page-1" stroke="none" stroke-width="1" fill="none" fill-rule="evenodd">
        <g id="Desktop-HD" transform="translate(-1275.000000, -3294.000000)">
            <g id="Group-4-Copy" transform="translate(390.000000, 3190.000000)">
                <g id="Page-1" transform="translate(885.000000, 103.000000)">
                    <path d="M47.5247525,186.696832 C47.5247525,191.856238 43.3415842,196.039406 38.1821782,196.039406 L38.0554455,196.039406 C32.8960396,196.039406 28.7128713,191.856238 28.7128713,186.696832 L28.7128713,84.5889109 C28.7128713,79.429505 32.8960396,75.2473267 38.0554455,75.2473267 L38.1821782,75.2473267 C43.3415842,75.2473267 47.5247525,79.429505 47.5247525,84.5889109 L47.5247525,186.696832 Z" id="Fill-1" fill="#F15A22"></path>
                    <path d="M58.4158416,58.7726733 C58.4158416,60.9132673 56.4534653,62.3756436 54.0643564,62.3756436 L53.839604,62.3756436 C51.450495,62.3756436 49.5049505,60.9132673 49.5049505,58.7726733 L49.5049505,22.1489109 C49.5049505,20.0083168 51.450495,17.8211881 53.839604,17.8211881 L54.0643564,17.8211881 C56.4534653,17.8211881 58.4158416,20.0083168 58.4158416,22.1489109 L58.4158416,58.7726733 Z M42.5742574,58.7726733 C42.5742574,60.9132673 40.8049505,62.3756436 38.4158416,62.3756436 L38.1910891,62.3756436 C35.8019802,62.3756436 33.6633663,60.9132673 33.6633663,58.7726733 L33.6633663,22.1489109 C33.6633663,20.0083168 35.8019802,17.8211881 38.1910891,17.8211881 L38.4158416,17.8211881 C40.8049505,17.8211881 42.5742574,20.0083168 42.5742574,22.1489109 L42.5742574,58.7726733 Z M26.7326733,58.7726733 C26.7326733,60.9132673 25.1564356,62.3756436 22.7673267,62.3756436 L22.5425743,62.3756436 C20.1534653,62.3756436 17.8217822,60.9132673 17.8217822,58.7726733 L17.8217822,22.1489109 C17.8217822,20.0083168 20.1534653,17.8211881 22.5425743,17.8211881 L22.7673267,17.8211881 C25.1564356,17.8211881 26.7326733,20.0083168 26.7326733,22.1489109 L26.7326733,58.7726733 Z M2.97029703,2.96970297 L2.97029703,50.1538614 C2.97029703,69.5023762 18.770297,85.1875248 38.1188119,85.1875248 C57.4673267,85.1875248 73.2673267,69.5023762 73.2673267,50.1538614 L73.2673267,2.96970297 L2.97029703,2.96970297 Z" id="Fill-3" fill="#6DC8BF"></path>
                    <path d="M47.5247525,186.696832 C47.5247525,191.856238 43.3415842,196.039406 38.1821782,196.039406 L38.0554455,196.039406 C32.8960396,196.039406 28.7128713,191.856238 28.7128713,186.696832 L28.7128713,84.5889109 C28.7128713,79.429505 32.8960396,75.2473267 38.0554455,75.2473267 L38.1821782,75.2473267 C43.3415842,75.2473267 47.5247525,79.429505 47.5247525,84.5889109 L47.5247525,186.696832 Z" id="Fill-5" fill="#F15A22"></path>
                    <path d="M58.4158416,59.2690099 C58.4158416,61.409604 56.4534653,63.3660396 54.0643564,63.3660396 L53.839604,63.3660396 C51.450495,63.3660396 49.5049505,61.409604 49.5049505,59.2690099 L49.5049505,22.6452475 C49.5049505,20.5046535 51.450495,18.8115842 53.839604,18.8115842 L54.0643564,18.8115842 C56.4534653,18.8115842 58.4158416,20.5046535 58.4158416,22.6452475 L58.4158416,59.2690099 Z M42.5742574,59.2690099 C42.5742574,61.409604 40.8049505,63.3660396 38.4158416,63.3660396 L38.1910891,63.3660396 C35.8019802,63.3660396 33.6633663,61.409604 33.6633663,59.2690099 L33.6633663,22.6452475 C33.6633663,20.5046535 35.8019802,18.8115842 38.1910891,18.8115842 L38.4158416,18.8115842 C40.8049505,18.8115842 42.5742574,20.5046535 42.5742574,22.6452475 L42.5742574,59.2690099 Z M26.7326733,59.2690099 C26.7326733,61.409604 25.1564356,63.3660396 22.7673267,63.3660396 L22.5425743,63.3660396 C20.1534653,63.3660396 17.8217822,61.409604 17.8217822,59.2690099 L17.8217822,22.6452475 C17.8217822,20.5046535 20.1534653,18.8115842 22.5425743,18.8115842 L22.7673267,18.8115842 C25.1564356,18.8115842 26.7326733,20.5046535 26.7326733,22.6452475 L26.7326733,59.2690099 Z M2.97029703,3.96009901 L2.97029703,50.650198 C2.97029703,69.9987129 18.770297,85.6838614 38.1188119,85.6838614 C57.4673267,85.6838614 73.2673267,69.9987129 73.2673267,50.650198 L73.2673267,3.96009901 L2.97029703,3.96009901 Z" id="Fill-7" fill="#6DC8BF"></path>
                    <g id="Group-11" transform="translate(0.000000, 1.036634)" fill="#3C1707">
                        <path d="M2.33554455,24.710099 C1.04544554,24.710099 -9.90099011e-05,23.6645545 -9.90099011e-05,22.3744554 L-9.90099011e-05,3.2229703 C-9.90099011e-05,1.93287129 1.04544554,0.887326733 2.33554455,0.887326733 L54.1850495,0.887326733 C55.4751485,0.887326733 56.5206931,1.93287129 56.5206931,3.2229703 C56.5206931,4.51306931 55.4751485,5.55861386 54.1850495,5.55861386 L4.67118812,5.55861386 L4.67118812,22.3744554 C4.67118812,23.6645545 3.62564356,24.710099 2.33554455,24.710099 M2.33554455,41.059604 C1.04544554,41.059604 -9.90099011e-05,40.0130693 -9.90099011e-05,38.7239604 L-9.90099011e-05,31.7170297 C-9.90099011e-05,30.4269307 1.04544554,29.3813861 2.33554455,29.3813861 C3.62564356,29.3813861 4.67118812,30.4269307 4.67118812,31.7170297 L4.67118812,38.7239604 C4.67118812,40.0130693 3.62564356,41.059604 2.33554455,41.059604 M28.0266337,103.652673 C26.7365347,103.652673 25.6909901,102.607129 25.6909901,101.31703 L25.6909901,84.7021782 C10.4741584,79.7021782 -9.90099011e-05,65.359604 -9.90099011e-05,49.2041584 C-9.90099011e-05,47.9140594 1.04544554,46.8685149 2.33554455,46.8685149 C3.62564356,46.8685149 4.67118812,47.9140594 4.67118812,49.2041584 C4.67118812,63.8764356 14.5434653,76.8388119 28.680099,80.7259406 C29.7543564,81.0219802 30.470198,82.0338614 30.3909901,83.1437624 L30.3850495,83.22 C30.3751485,83.3645545 30.3622772,83.5081188 30.3622772,83.6546535 L30.3622772,101.31703 C30.3622772,102.607129 29.3167327,103.652673 28.0266337,103.652673 M46.7117822,177.92396 C45.4216832,177.92396 44.3761386,176.878416 44.3761386,175.588317 L44.3761386,83.6546535 C44.3761386,83.5081188 44.3632673,83.3645545 44.3533663,83.22 L44.3474257,83.1437624 C44.2682178,82.0338614 44.9840594,81.0219802 46.0573267,80.7259406 C60.1939604,76.8388119 70.0672277,63.8764356 70.0672277,49.2041584 L70.0672277,5.55861386 L66.3305941,5.55861386 C65.040495,5.55861386 63.9949505,4.51306931 63.9949505,3.2229703 C63.9949505,1.93287129 65.040495,0.887326733 66.3305941,0.887326733 L72.4028713,0.887326733 C73.6929703,0.887326733 74.7385149,1.93287129 74.7385149,3.2229703 L74.7385149,49.2041584 C74.7385149,65.359604 64.2642574,79.7021782 49.0474257,84.7021782 L49.0474257,175.588317 C49.0474257,176.878416 48.0018812,177.92396 46.7117822,177.92396 M37.3692079,197.629901 C30.929604,197.629901 25.6909901,192.391287 25.6909901,185.952673 L25.6909901,112.527921 C25.6909901,111.237822 26.7365347,110.192277 28.0266337,110.192277 C29.3167327,110.192277 30.3622772,111.237822 30.3622772,112.527921 L30.3622772,185.952673 C30.3622772,189.81604 33.5058416,192.959604 37.3692079,192.959604 C41.2325743,192.959604 44.3761386,189.81604 44.3761386,185.952673 C44.3761386,184.662574 45.4216832,183.61703 46.7117822,183.61703 C48.0018812,183.61703 49.0474257,184.662574 49.0474257,185.952673 C49.0474257,192.391287 43.8088119,197.629901 37.3692079,197.629901" id="Fill-9"></path>
                    </g>
                    <path d="M125.742574,12.3121782 C125.742574,7.15277228 121.559406,2.96960396 116.4,2.96960396 L116.273267,2.96960396 C111.113861,2.96960396 106.930693,7.15277228 106.930693,12.3121782 L106.930693,114.420099 C106.930693,119.579505 111.113861,123.761683 116.273267,123.761683 L116.4,123.761683 C121.559406,123.761683 125.742574,119.579505 125.742574,114.420099 L125.742574,12.3121782 Z" id="Fill-12" fill="#F15A22"></path>
                    <path d="M125.742574,196.71099 L125.742574,71.2872277 L86.8831683,71.2872277 C86.8831683,71.2872277 81.1881188,196.71099 125.742574,196.71099" id="Fill-14" fill="#6DC8BF"></path>
                    <path d="M125.247525,122.439604 C123.957426,122.439604 122.772277,123.485149 122.772277,124.775248 L122.772277,164.947525 C122.772277,166.236634 123.957426,167.282178 125.247525,167.282178 C126.537624,167.282178 127.722772,166.236634 127.722772,164.947525 L127.722772,124.775248 C127.722772,123.485149 126.537624,122.439604 125.247525,122.439604" id="Fill-16" fill="#3C1707"></path>
                    <path d="M125.247525,26.6809901 C123.957426,26.6809901 122.772277,27.7265347 122.772277,29.0166337 L122.772277,114.966139 C122.772277,116.256238 123.957426,117.301782 125.247525,117.301782 C126.537624,117.301782 127.722772,116.256238 127.722772,114.966139 L127.722772,29.0166337 C127.722772,27.7265347 126.537624,26.6809901 125.247525,26.6809901" id="Fill-18" fill="#3C1707"></path>
                    <g id="Group-22" transform="translate(103.960396, 0.036634)">
                        <mask id="mask-2" fill="white">
                            <use xlink:href="#path-1"></use>
                        </mask>
                        <g id="Clip-21"></g>
                        <path d="M11.8811881,0.953069307 C5.44158416,0.953069307 0,6.19168317 0,12.6312871 L0,45.3293069 C0,46.6194059 1.18514851,47.6649505 2.47524752,47.6649505 C3.76534653,47.6649505 4.95049505,46.6194059 4.95049505,45.3293069 L4.95049505,12.6312871 C4.95049505,8.76693069 8.01782178,5.62435644 11.8811881,5.62435644 C15.7445545,5.62435644 18.8118812,8.76693069 18.8118812,12.6312871 L18.8118812,18.7035644 C18.8118812,19.9936634 19.9970297,21.0392079 21.2871287,21.0392079 C22.5772277,21.0392079 23.7623762,19.9936634 23.7623762,18.7035644 L23.7623762,12.6312871 C23.7623762,6.19168317 18.3207921,0.953069307 11.8811881,0.953069307" id="Fill-20" fill="#3C1707" mask="url(#mask-2)"></path>
                    </g>
                    <path d="M106.435644,53.3065347 C105.145545,53.3065347 103.960396,54.3520792 103.960396,55.6421782 L103.960396,68.3164356 L86.8831683,68.3164356 C85.6376238,68.3164356 84.609901,69.2639604 84.550495,70.5085149 C84.5475248,70.5708911 84.2514851,77.0362376 84.2683168,86.5639604 C84.270297,87.8520792 85.3158416,89.1085149 86.6039604,89.1085149 L86.6079208,89.1085149 C87.8970297,89.1085149 88.9415842,88.0015842 88.939604,86.7114851 C88.9287129,80.6352475 89.0465347,75.2471287 89.1316832,73.2669307 L106.50198,73.2669307 C107.792079,73.2669307 108.910891,71.879802 108.910891,70.589703 L108.910891,55.6421782 C108.910891,54.3520792 107.725743,53.3065347 106.435644,53.3065347" id="Fill-23" fill="#3C1707"></path>
                    <path d="M86.6535644,90.0986139 L86.6189109,90.0986139 C85.3288119,90.0986139 84.2981188,91.0768317 84.3179208,92.3669307 C84.3406931,93.9748515 84.3743564,95.5956436 84.4189109,97.3223762 C84.4515842,98.5906931 85.490198,99.5718812 86.7525743,99.5718812 C86.7723762,99.5718812 86.7931683,99.5590099 86.8139604,99.5590099 C88.1030693,99.5253465 89.1218812,98.4471287 89.0882178,97.1570297 C89.0446535,95.4491089 89.0109901,93.8926733 88.9882178,92.3025743 C88.9694059,91.0243564 87.9268317,90.0986139 86.6535644,90.0986139" id="Fill-25" fill="#3C1707"></path>
                    <path d="M87.1749505,105.788119 C87.1343564,105.788119 87.0937624,105.789109 87.0531683,105.791089 C85.7650495,105.857426 84.7739604,106.955446 84.840297,108.243564 C86.9719802,149.667327 95.8026733,199.046535 125.286832,199.046535 C126.576931,199.046535 127.722475,198.00099 127.722475,196.710891 L127.722475,174.289109 C127.722475,173 126.537327,171.953465 125.247228,171.953465 C123.957129,171.953465 122.77198,173 122.77198,174.289109 L122.77198,194.237624 C98.019505,191.223762 91.0779208,139.315842 89.4660396,108.00396 C89.4016832,106.756436 88.409604,105.788119 87.1749505,105.788119" id="Fill-27" fill="#3C1707"></path>
                </g>
            </g>
        </g>
    </g>
</svg>