<?xml version="1.0" encoding="UTF-8" standalone="no"?>
<svg width="200px" height="124px" viewBox="0 0 200 124" version="1.1" xmlns="http://www.w3.org/2000/svg" xmlns:xlink="http://www.w3.org/1999/xlink">
    <!-- Generator: Sketch 3.7.2 (28276) - http://www.bohemiancoding.com/sketch -->
    <title>Page 1</title>
    <desc>Created with Sketch.</desc>
    <defs>
        <polygon id="path-1" points="15.9178534 72.2513089 31.4136126 72.2513089 31.4136126 0.838743455 0.422094241 0.838743455 0.422094241 72.2513089"></polygon>
        <polygon id="path-3" points="200 21.9898953 200 0 0 0 0 21.9898953 0 43.9797906 200 43.9797906"></polygon>
        <polygon id="path-5" points="0 123.560209 200 123.560209 200 0 0 0"></polygon>
    </defs>
    <g id="Page-1" stroke="none" stroke-width="1" fill="none" fill-rule="evenodd">
        <g id="Desktop-HD" transform="translate(-481.000000, -3331.000000)">
            <g id="Group-4-Copy" transform="translate(390.000000, 3190.000000)">
                <g id="Page-1" transform="translate(91.000000, 141.000000)">
                    <path d="M197.905759,114.136021 C197.905759,117.606178 195.093194,120.418743 191.623037,120.418743 L8.37696335,120.418743 C4.90680628,120.418743 2.09424084,117.606178 2.09424084,114.136021 L2.09424084,8.37685864 C2.09424084,4.90670157 4.90680628,2.09413613 8.37696335,2.09413613 L191.623037,2.09413613 C195.093194,2.09413613 197.905759,4.90670157 197.905759,8.37685864 L197.905759,114.136021 L197.905759,114.136021 Z" id="Fill-1" fill="#FDB913"></path>
                    <path d="M2.09424084,26.1780105 L2.09424084,8.79581152 C2.09424084,5.32565445 5.63979058,2.09424084 9.10994764,2.09424084 L191.940314,2.09424084 C195.410471,2.09424084 197.905759,5.32565445 197.905759,8.79581152 L197.905759,26.1780105 L2.09424084,26.1780105 Z" id="Fill-3" fill="#F15A22"></path>
                    <path d="M4.18848168,10.4712042 L4.18848168,11.3089005 C4.18848168,7.83874346 5.63979058,5.23560209 9.10994764,5.23560209 L191.940314,5.23560209 C195.410471,5.23560209 196.024084,7.83874346 196.024084,11.3089005 L197.280628,10.4712042 L4.18848168,10.4712042 Z" id="Fill-5" fill="#F47B4E"></path>
                    <path d="M2.61780105,86.0747644 C1.23036649,86.0747644 0,84.9491099 0,83.5616754 L0,30.7857592 C0,29.3983246 1.23036649,28.2726702 2.61780105,28.2726702 C4.0052356,28.2726702 5.23560209,29.3983246 5.23560209,30.7857592 L5.23560209,83.5616754 C5.23560209,84.9491099 4.0052356,86.0747644 2.61780105,86.0747644" id="Fill-7" fill="#3C1707"></path>
                    <path d="M122.514555,123.560209 L8.79623037,123.560209 C3.94596859,123.560209 0.000418848168,119.197906 0.000418848168,114.347644 L0.000418848168,92.3570681 C0.000418848168,90.9696335 1.22973822,89.8439791 2.6182199,89.8439791 C4.00565445,89.8439791 5.23602094,90.9696335 5.23602094,92.3570681 L5.23602094,114.347644 C5.23602094,116.426178 6.71769634,118.324607 8.79623037,118.324607 L122.514555,118.324607 C123.90199,118.324607 125.027644,119.554974 125.027644,120.942408 C125.027644,122.329843 123.90199,123.560209 122.514555,123.560209" id="Fill-9" fill="#3C1707"></path>
                    <path d="M137.593927,123.560209 L132.567749,123.560209 C131.180314,123.560209 130.05466,122.329843 130.05466,120.942408 C130.05466,119.554974 131.180314,118.324607 132.567749,118.324607 L137.593927,118.324607 C138.981361,118.324607 140.107016,119.554974 140.107016,120.942408 C140.107016,122.329843 138.981361,123.560209 137.593927,123.560209" id="Fill-11" fill="#3C1707"></path>
                    <path d="M162.096963,123.560209 L147.017382,123.560209 C145.629948,123.560209 144.504293,122.329843 144.504293,120.942408 C144.504293,119.554974 145.629948,118.324607 147.017382,118.324607 L162.096963,118.324607 C163.484398,118.324607 164.610052,119.554974 164.610052,120.942408 C164.610052,122.329843 163.484398,123.560209 162.096963,123.560209" id="Fill-13" fill="#3C1707"></path>
                    <g id="Group-17" transform="translate(168.586387, 51.308901)">
                        <mask id="mask-2" fill="white">
                            <use xlink:href="#path-1"></use>
                        </mask>
                        <g id="Clip-16"></g>
                        <path d="M23.0398953,72.2513089 L2.93518325,72.2513089 C1.54670157,72.2513089 0.422094241,71.0209424 0.422094241,69.6335079 C0.422094241,68.2460733 1.54670157,67.0157068 2.93518325,67.0157068 L23.0398953,67.0157068 C25.1184293,67.0157068 27.2252356,65.1172775 27.2252356,63.0387435 L27.2252356,3.35183246 C27.2252356,1.96335079 27.9320419,0.838743455 29.3194764,0.838743455 C30.706911,0.838743455 31.4137173,1.96335079 31.4137173,3.35183246 L31.4137173,63.0387435 C31.4137173,67.8890052 27.8901571,72.2513089 23.0398953,72.2513089" id="Fill-15" fill="#3C1707" mask="url(#mask-2)"></path>
                    </g>
                    <g id="Group-20">
                        <mask id="mask-4" fill="white">
                            <use xlink:href="#path-3"></use>
                        </mask>
                        <g id="Clip-19"></g>
                        <path d="M197.905759,43.9797906 C196.518325,43.9797906 195.811518,42.8541361 195.811518,41.4667016 L195.811518,8.79549738 C195.811518,6.71696335 193.704712,5.23528796 191.626178,5.23528796 L8.79581152,5.23528796 C6.71727749,5.23528796 5.23560209,6.71696335 5.23560209,8.79549738 L5.23560209,21.9902618 C5.23560209,23.3776963 4.0052356,24.5033508 2.61780105,24.5033508 C1.23036649,24.5033508 0,23.3776963 0,21.9902618 L0,8.79549738 C0,3.94628272 3.94554974,-0.000314136126 8.79581152,-0.000314136126 L191.626178,-0.000314136126 C196.47644,-0.000314136126 200,3.94628272 200,8.79549738 L200,41.4667016 C200,42.8541361 199.293194,43.9797906 197.905759,43.9797906" id="Fill-18" fill="#3C1707" mask="url(#mask-4)"></path>
                    </g>
                    <path d="M61.7801047,46.0732984 L40.3623037,46.0732984 C29.1748691,46.0732984 19.895288,57.1162304 19.895288,70.9958115 L19.895288,77.278534 C19.895288,91.1581152 29.1748691,102.617801 40.3623037,102.617801 L61.7801047,102.617801 L61.7801047,46.0732984 Z" id="Fill-21" fill="#00ADDC"></path>
                    <path d="M143.455497,46.0732984 L164.457592,46.0732984 C175.645026,46.0732984 184.293194,57.1162304 184.293194,70.9958115 L184.293194,77.278534 C184.293194,91.1581152 175.645026,102.617801 164.457592,102.617801 L143.455497,102.617801 L143.455497,46.0732984 Z" id="Fill-23" fill="#00ADDC"></path>
                    <mask id="mask-6" fill="white">
                        <use xlink:href="#path-5"></use>
                    </mask>
                    <g id="Clip-26"></g>
                    <polygon id="Fill-25" fill="#F2F2F2" mask="url(#mask-6)" points="61.7801047 102.617801 143.455497 102.617801 143.455497 46.0732984 61.7801047 46.0732984"></polygon>
                </g>
            </g>
        </g>
    </g>
</svg>