<?xml version="1.0" encoding="UTF-8" standalone="no"?>
<svg width="200px" height="222px" viewBox="0 0 200 222" version="1.1" xmlns="http://www.w3.org/2000/svg" xmlns:xlink="http://www.w3.org/1999/xlink">
    <!-- Generator: Sketch 3.7.2 (28276) - http://www.bohemiancoding.com/sketch -->
    <title>Page 1</title>
    <desc>Created with Sketch.</desc>
    <defs>
        <polygon id="path-1" points="0 221.457143 200 221.457143 200 0 0 0"></polygon>
    </defs>
    <g id="Page-1" stroke="none" stroke-width="1" fill="none" fill-rule="evenodd">
        <g id="Desktop-HD" transform="translate(-481.000000, -3688.000000)">
            <g id="Group-4-Copy" transform="translate(390.000000, 3190.000000)">
                <g id="Page-1" transform="translate(91.000000, 498.000000)">
                    <path d="M63.0952381,178.1625 C63.0952381,190.223214 53.3178571,199.999405 41.2583333,199.999405 L24.2178571,199.999405 C12.1583333,199.999405 2.38095238,190.223214 2.38095238,178.1625 L2.38095238,133.741071 C2.38095238,121.681548 12.1583333,111.904167 24.2178571,111.904167 L41.2583333,111.904167 C53.3178571,111.904167 63.0952381,121.681548 63.0952381,133.741071 L63.0952381,178.1625 L63.0952381,178.1625 Z" id="Fill-1" fill="#00ADDC"></path>
                    <path d="M198.809524,133.741429 C198.809524,121.680714 189.032143,111.904524 176.972619,111.904524 L159.932143,111.904524 C147.872619,111.904524 138.095238,121.680714 138.095238,133.741429 L138.095238,178.162857 C138.095238,190.222381 147.872619,199.999762 159.932143,199.999762 L176.972619,199.999762 C189.032143,199.999762 198.809524,190.222381 198.809524,178.162857 L198.809524,133.741429 Z" id="Fill-3" fill="#00ADDC"></path>
                    <path d="M167.857143,197.210119 C167.857143,209.270833 158.079762,219.047024 146.020238,219.047024 L55.1702381,219.047024 C43.1107143,219.047024 33.3333333,209.270833 33.3333333,197.210119 L33.3333333,46.8363095 C33.3333333,34.7767857 43.1107143,24.9994048 55.1702381,24.9994048 L146.020238,24.9994048 C158.079762,24.9994048 167.857143,34.7767857 167.857143,46.8363095 L167.857143,197.210119 Z" id="Fill-5" fill="#ED1C24"></path>
                    <mask id="mask-2" fill="white">
                        <use xlink:href="#path-1"></use>
                    </mask>
                    <g id="Clip-8"></g>
                    <polygon id="Fill-7" fill="#FDB913" mask="url(#mask-2)" points="89.2857143 219.047619 111.904762 219.047619 111.904762 25 89.2857143 25"></polygon>
                    <path d="M89.2857143,36.9044048 L89.2857143,10.5889286 C89.2857143,5.76511905 85.8404762,2.38059524 81.0154762,2.38059524 L77.9583333,2.38059524 C73.1345238,2.38059524 69.047619,5.76511905 69.047619,10.5889286 L69.047619,36.9044048 L89.2857143,36.9044048 Z" id="Fill-9" fill="#ED1C24" mask="url(#mask-2)"></path>
                    <path d="M132.142857,36.9044048 L132.142857,10.5889286 C132.142857,5.76511905 128.203571,2.38059524 123.379762,2.38059524 L120.322619,2.38059524 C115.49881,2.38059524 111.904762,5.76511905 111.904762,10.5889286 L111.904762,36.9044048 L132.142857,36.9044048 Z" id="Fill-10" fill="#ED1C24" mask="url(#mask-2)"></path>
                    <path d="M185.714286,67.4482143 C185.714286,79.5089286 175.936905,89.285119 163.877381,89.285119 L36.122619,89.285119 C24.0630952,89.285119 14.2857143,79.5089286 14.2857143,67.4482143 L14.2857143,46.8363095 C14.2857143,34.7767857 24.0630952,24.9994048 36.122619,24.9994048 L163.877381,24.9994048 C175.936905,24.9994048 185.714286,34.7767857 185.714286,46.8363095 L185.714286,67.4482143 Z" id="Fill-11" fill="#524FA1" mask="url(#mask-2)"></path>
                    <polygon id="Fill-12" fill="#FDB913" mask="url(#mask-2)" points="47.6190476 89.2857143 69.047619 89.2857143 69.047619 25 47.6190476 25"></polygon>
                    <polygon id="Fill-13" fill="#FDB913" mask="url(#mask-2)" points="130.952381 89.2857143 153.571429 89.2857143 153.571429 25 130.952381 25"></polygon>
                    <path d="M122.619048,146.026667 C122.619048,150.850476 118.708333,154.76119 113.884524,154.76119 L88.4964286,154.76119 C83.672619,154.76119 79.7619048,150.850476 79.7619048,146.026667 L79.7619048,120.639762 C79.7619048,115.814762 83.672619,111.904048 88.4964286,111.904048 L113.884524,111.904048 C118.708333,111.904048 122.619048,115.814762 122.619048,120.639762 L122.619048,146.026667 Z" id="Fill-14" fill="#00ADDC" mask="url(#mask-2)"></path>
                    <path d="M88.042381,156.242381 C82.0221429,156.242381 77.3804762,151.344762 77.3804762,145.323333 L77.3804762,133.094762 C77.3804762,131.88881 77.9602381,130.911429 79.1661905,130.911429 C80.3733333,130.911429 80.9519048,131.88881 80.9519048,133.094762 L80.9519048,145.323333 C80.9519048,148.936429 84.0316667,151.874524 87.6447619,151.874524 C88.8507143,151.874524 90.0269048,152.853095 90.0269048,154.059048 C90.0269048,155.265 89.2483333,156.242381 88.042381,156.242381" id="Fill-15" fill="#002B37" mask="url(#mask-2)"></path>
                    <path d="M103.07131,155.952024 L97.3939286,155.952024 C96.1879762,155.952024 95.2094048,155.372262 95.2094048,154.16631 C95.2094048,152.960357 96.1879762,152.380595 97.3939286,152.380595 L103.07131,152.380595 C104.277262,152.380595 105.254643,152.960357 105.254643,154.16631 C105.254643,155.372262 104.277262,155.952024 103.07131,155.952024" id="Fill-16" fill="#002B37" mask="url(#mask-2)"></path>
                    <path d="M112.785357,156.351548 C111.579405,156.351548 110.548452,155.374167 110.548452,154.168214 C110.548452,152.961071 111.407976,151.98369 112.615119,151.98369 C116.227024,151.98369 119.047262,148.996786 119.047262,145.324167 L119.047262,132.65869 C119.047262,131.451548 120.222262,130.474167 121.428214,130.474167 C122.635357,130.474167 123.809167,131.451548 123.809167,132.65869 L123.809167,145.324167 C123.809167,151.403929 118.805595,156.351548 112.785357,156.351548" id="Fill-17" fill="#002B37" mask="url(#mask-2)"></path>
                    <path d="M121.414524,122.613214 C120.208571,122.613214 119.23119,121.839405 119.23119,120.633452 C119.23119,117.020357 116.291905,114.285833 112.68,114.285833 L94.7728571,114.285833 C93.5669048,114.285833 92.5895238,113.110833 92.5895238,111.904881 C92.5895238,110.697738 93.5669048,109.523929 94.7728571,109.523929 L112.68,109.523929 C118.700238,109.523929 123.597857,114.415595 123.597857,120.435833 C123.597857,121.641786 122.620476,122.613214 121.414524,122.613214" id="Fill-18" fill="#002B37" mask="url(#mask-2)"></path>
                    <path d="M79.0504762,122.722381 C77.8445238,122.722381 76.8671429,121.745 76.8671429,120.539048 C76.8671429,114.458095 81.7647619,109.510476 87.785,109.510476 C88.9909524,109.510476 89.9695238,110.489048 89.9695238,111.695 C89.9695238,112.900952 88.9909524,113.878333 87.785,113.878333 C84.1730952,113.878333 81.2338095,116.866429 81.2338095,120.539048 C81.2338095,121.745 80.2564286,122.722381 79.0504762,122.722381" id="Fill-19" fill="#002B37" mask="url(#mask-2)"></path>
                    <path d="M14.2857143,56.2283333 C13.0797619,56.2283333 11.9047619,55.2509524 11.9047619,54.045 L11.9047619,45.9652381 C11.9047619,33.0807143 23.2988095,22.6188095 36.9047619,22.6188095 L66.6666667,22.6188095 L66.6666667,10.1521429 C66.6666667,7.22119048 68.0559524,4.59738095 70.4369048,2.66404762 C72.5642857,0.93547619 75.5142857,-0.000238095238 78.3952381,-0.000238095238 L81.452381,-0.000238095238 C87.4952381,-0.000238095238 91.6666667,4.10928571 91.6666667,10.1521429 L91.6666667,22.6188095 L109.52381,22.6188095 L109.52381,10.1521429 C109.52381,7.22119048 110.666667,4.59738095 113.047619,2.66404762 C115.175,0.93547619 117.878571,-0.000238095238 120.759524,-0.000238095238 L123.816667,-0.000238095238 C129.859524,-0.000238095238 134.52381,4.10928571 134.52381,10.1521429 L134.52381,22.6188095 L141.941667,22.6188095 C143.147619,22.6188095 144.125,23.7938095 144.125,24.9997619 C144.125,26.2057143 143.147619,27.3807143 141.941667,27.3807143 L131.896429,27.3807143 C130.690476,27.3807143 129.761905,25.9890476 129.761905,24.7830952 L129.761905,10.1521429 C129.761905,6.5152381 127.453571,4.76166667 123.816667,4.76166667 L120.759524,4.76166667 C117.294048,4.76166667 113.095238,6.51047619 113.095238,10.1521429 L113.095238,24.7830952 C113.095238,25.9890476 112.575,27.3807143 111.369048,27.3807143 L89.5321429,27.3807143 C88.3261905,27.3807143 86.9047619,25.9890476 86.9047619,24.7830952 L86.9047619,10.1521429 C86.9047619,6.5152381 85.0892857,4.76166667 81.452381,4.76166667 L78.3952381,4.76166667 C74.9297619,4.76166667 71.4285714,6.51047619 71.4285714,10.1521429 L71.4285714,24.7830952 C71.4285714,25.9890476 70.2119048,27.3807143 69.0047619,27.3807143 L36.9047619,27.3807143 C25.7059524,27.3807143 16.6666667,35.4890476 16.6666667,45.9652381 L16.6666667,54.045 C16.6666667,55.2509524 15.4916667,56.2283333 14.2857143,56.2283333" id="Fill-20" fill="#131328" mask="url(#mask-2)"></path>
                    <path d="M167.5975,90.6683333 C166.542738,90.6683333 165.615357,89.9028571 165.443929,88.8278571 C165.253452,87.637381 165.7975,86.5183333 166.987976,86.3278571 C176.614167,84.7909524 183.333214,76.632619 183.333214,66.9290476 L183.333214,45.9647619 C183.333214,35.1338095 175.701071,27.3802381 164.870119,27.3802381 L153.733214,27.3802381 C152.527262,27.3802381 151.549881,26.2052381 151.549881,24.9992857 C151.549881,23.7933333 152.527262,22.6183333 153.733214,22.6183333 L164.870119,22.6183333 C178.191548,22.6183333 188.095119,32.6445238 188.095119,45.9647619 L188.095119,66.9290476 C188.095119,78.7909524 179.632024,88.7635714 167.87369,90.6409524 C167.757024,90.6588095 167.711786,90.6683333 167.5975,90.6683333" id="Fill-21" fill="#131328" mask="url(#mask-2)"></path>
                    <path d="M198.214286,157.989405 C197.008333,157.989405 196.428571,157.012024 196.428571,155.806071 L196.428571,132.439405 C196.428571,121.609643 187.929762,113.095357 177.09881,113.095357 L167.709524,113.095357 C166.503571,113.095357 165.47619,112.464405 165.47619,111.258452 L165.47619,99.4655952 C165.47619,98.2596429 166.65119,97.2822619 167.857143,97.2822619 C169.063095,97.2822619 170.238095,98.2596429 170.238095,99.4655952 L170.238095,109.523929 L177.09881,109.523929 C190.420238,109.523929 200,119.119167 200,132.439405 L200,155.806071 C200,157.012024 199.420238,157.989405 198.214286,157.989405" id="Fill-22" fill="#131328" mask="url(#mask-2)"></path>
                    <path d="M146.527143,221.428214 L85.6009524,221.428214 C84.395,221.428214 83.417619,220.253214 83.417619,219.047262 C83.417619,217.84131 84.395,216.66631 85.6009524,216.66631 L146.527143,216.66631 C156.267619,216.66631 164.836667,209.150833 166.035476,199.449643 C166.17,198.355595 167.099762,197.61869 168.202143,197.61869 L177.098571,197.61869 C187.574762,197.61869 196.428333,188.622262 196.428333,177.424643 L196.428333,168.907976 C196.428333,167.702024 197.008095,166.724643 198.214048,166.724643 C199.42,166.724643 199.999762,167.702024 199.999762,168.907976 L199.999762,177.424643 C199.999762,191.030595 189.983095,202.380595 177.098571,202.380595 L170.050952,202.380595 C167.758095,213.094881 157.783095,221.428214 146.527143,221.428214" id="Fill-23" fill="#131328" mask="url(#mask-2)"></path>
                    <path d="M75.1197619,221.428214 L67.2578571,221.428214 C66.0519048,221.428214 65.0745238,220.253214 65.0745238,219.047262 C65.0745238,217.84131 66.0519048,216.66631 67.2578571,216.66631 L75.1197619,216.66631 C76.3257143,216.66631 77.3030952,217.84131 77.3030952,219.047262 C77.3030952,220.253214 76.3257143,221.428214 75.1197619,221.428214" id="Fill-24" fill="#131328" mask="url(#mask-2)"></path>
                    <path d="M55.2479762,221.457143 C43.9920238,221.457143 34.0170238,213.095238 31.7253571,202.380952 L24.6765476,202.380952 C19.8646429,202.380952 15.1444048,200.746429 11.0241667,197.920238 C10.030119,197.239286 9.77654762,195.809524 10.4586905,194.814286 C11.1408333,193.820238 12.5003571,193.475 13.4944048,194.157143 C16.8836905,196.482143 20.7503571,197.619048 24.6765476,197.619048 L33.5729762,197.619048 C34.6753571,197.619048 35.605119,198.497619 35.7396429,199.591667 C36.9384524,209.292857 45.5075,216.921429 55.2479762,216.921429 C56.4539286,216.921429 57.4313095,217.983333 57.4313095,219.189286 C57.4313095,220.395238 56.4539286,221.457143 55.2479762,221.457143" id="Fill-25" fill="#131328" mask="url(#mask-2)"></path>
                    <path d="M4.12095238,188.476071 C3.28880952,188.476071 2.49357143,187.9975 2.12928571,187.190357 C0.716190476,184.060595 -0.000476190476,180.774881 -0.000476190476,177.424881 L-0.000476190476,161.920119 C-0.000476190476,160.714167 1.17452381,159.736786 2.38047619,159.736786 C3.58761905,159.736786 4.76142857,160.714167 4.76142857,161.920119 L4.76142857,177.424881 C4.76142857,180.151071 5.15071429,182.832024 6.30666667,185.392738 C6.80309524,186.492738 6.21619048,187.785595 5.11738095,188.282024 C4.82571429,188.414167 4.42095238,188.476071 4.12095238,188.476071" id="Fill-26" fill="#131328" mask="url(#mask-2)"></path>
                    <path d="M2.38095238,151.001429 C1.175,151.001429 0,150.024048 0,148.818095 L0,132.439524 C0,119.55619 11.0690476,109.522857 24.6761905,109.522857 L30.952381,109.522857 L30.952381,90.2597619 C20.2380952,87.6252381 12.4190476,77.907381 12.4190476,66.9288095 C12.4190476,65.7228571 13.3011905,64.7442857 14.5071429,64.7442857 C15.7142857,64.7442857 16.6440476,65.7228571 16.6440476,66.9288095 C16.6440476,76.4204762 23.5130952,84.7609524 32.9309524,86.33 C33.9833333,86.505 34.5238095,87.4169048 34.5238095,88.4835714 L34.5238095,111.257381 C34.5238095,112.464524 33.9619048,113.094286 32.7559524,113.094286 L24.6761905,113.094286 C13.477381,113.094286 4.76190476,121.964524 4.76190476,132.439524 L4.76190476,148.818095 C4.76190476,150.024048 3.58690476,151.001429 2.38095238,151.001429" id="Fill-27" fill="#131328" mask="url(#mask-2)"></path>
                </g>
            </g>
        </g>
    </g>
</svg>