<?xml version="1.0" encoding="UTF-8" standalone="no"?>
<svg width="200px" height="138px" viewBox="0 0 200 138" version="1.1" xmlns="http://www.w3.org/2000/svg" xmlns:xlink="http://www.w3.org/1999/xlink">
    <!-- Generator: Sketch 3.7.2 (28276) - http://www.bohemiancoding.com/sketch -->
    <title>Page 1</title>
    <desc>Created with Sketch.</desc>
    <defs>
        <polygon id="path-1" points="36.9257592 35.6020942 73.2984293 35.6020942 73.2984293 0.191623037 0.553089005 0.191623037 0.553089005 35.6020942"></polygon>
    </defs>
    <g id="Page-1" stroke="none" stroke-width="1" fill="none" fill-rule="evenodd">
        <g id="Desktop-HD" transform="translate(-860.000000, -3325.000000)">
            <g id="Group-4-Copy" transform="translate(390.000000, 3190.000000)">
                <g id="Page-1" transform="translate(470.000000, 135.000000)">
                    <path d="M197.905759,132.071309 C197.905759,133.154031 197.028272,134.031518 195.94555,134.031518 L4.05445026,134.031518 C2.97172775,134.031518 2.09424084,133.154031 2.09424084,132.071309 L2.09424084,4.05455497 C2.09424084,2.97183246 2.97172775,2.09434555 4.05445026,2.09434555 L195.94555,2.09434555 C197.028272,2.09434555 197.905759,2.97183246 197.905759,4.05455497 L197.905759,132.071309 Z" id="Fill-1" fill="#524FA1"></path>
                    <path d="M2.61780105,81.8062827 C1.27958115,81.8062827 0,80.721466 0,79.382199 L0,4.38429319 C0,1.96649215 1.96649215,0 4.38429319,0 L55.7497382,0 C57.0879581,0 58.173822,1.27958115 58.173822,2.61780105 C58.173822,3.95602094 57.0879581,5.23560209 55.7497382,5.23560209 L5.23560209,5.23560209 L5.23560209,79.382199 C5.23560209,80.721466 3.95602094,81.8062827 2.61780105,81.8062827" id="Fill-3" fill="#292851"></path>
                    <path d="M2.61780105,98.1675393 C1.27958115,98.1675393 0,97.0827225 0,95.7434555 L0,87.2596859 C0,85.921466 1.27958115,84.8366492 2.61780105,84.8366492 C3.95602094,84.8366492 5.23560209,85.921466 5.23560209,87.2596859 L5.23560209,95.7434555 C5.23560209,97.0827225 3.95602094,98.1675393 2.61780105,98.1675393" id="Fill-5" fill="#292851"></path>
                    <path d="M120.588586,137.172775 L4.38335079,137.172775 C1.88492147,137.172775 0.000104712042,135.15288 0.000104712042,132.769634 L0.000104712042,106.651309 C0.000104712042,105.313089 1.27968586,104.227225 2.61790576,104.227225 C3.95612565,104.227225 5.23570681,105.313089 5.23570681,106.651309 L5.23570681,131.937173 L120.588586,131.937173 C121.926806,131.937173 123.01267,133.216754 123.01267,134.554974 C123.01267,135.893194 121.926806,137.172775 120.588586,137.172775" id="Fill-7" fill="#292851"></path>
                    <g id="Group-11" transform="translate(126.701571, 101.570681)">
                        <mask id="mask-2" fill="white">
                            <use xlink:href="#path-1"></use>
                        </mask>
                        <g id="Clip-10"></g>
                        <path d="M69.7708901,35.6020942 L2.97612565,35.6020942 C1.63790576,35.6020942 0.553089005,34.3225131 0.553089005,32.9842932 C0.553089005,31.6460733 1.63790576,30.3664921 2.97612565,30.3664921 L69.0263874,30.3664921 L69.0274346,2.57382199 C69.0274346,1.23560209 69.8242932,0.191623037 71.1625131,0.191623037 C72.5017801,0.191623037 73.2986387,1.31832461 73.2986387,2.6565445 L73.2986387,31.1989529 C73.2986387,33.6596859 72.187644,35.6020942 69.7708901,35.6020942" id="Fill-9" fill="#292851" mask="url(#mask-2)"></path>
                    </g>
                    <path d="M197.905759,93.9257592 C196.567539,93.9257592 195.811518,92.8409424 195.811518,91.5016754 L195.811518,5.23570681 L104.833508,5.23570681 C103.494241,5.23570681 102.409424,3.95612565 102.409424,2.61790576 C102.409424,1.27968586 103.494241,0.000104712042 104.833508,0.000104712042 L196.472251,0.000104712042 C198.812565,0.000104712042 200,1.88492147 200,4.38335079 L200,91.5016754 C200,92.8409424 199.243979,93.9257592 197.905759,93.9257592" id="Fill-12" fill="#292851"></path>
                    <path d="M95.7436649,5.23560209 L91.5017801,5.23560209 C90.1635602,5.23560209 89.0776963,3.95602094 89.0776963,2.61780105 C89.0776963,1.27958115 90.1635602,0 91.5017801,0 L95.7436649,0 C97.0818848,0 98.1677487,1.27958115 98.1677487,2.61780105 C98.1677487,3.95602094 97.0818848,5.23560209 95.7436649,5.23560209" id="Fill-14" fill="#292851"></path>
                    <path d="M81.8062827,5.23560209 L67.8691099,5.23560209 C66.5298429,5.23560209 65.4450262,3.95602094 65.4450262,2.61780105 C65.4450262,1.27958115 66.5298429,0 67.8691099,0 L81.8062827,0 C83.1445026,0 84.2303665,1.27958115 84.2303665,2.61780105 C84.2303665,3.95602094 83.1445026,5.23560209 81.8062827,5.23560209" id="Fill-16" fill="#292851"></path>
                    <path d="M19.5708901,14.7391623 C19.5708901,16.9035602 17.8169634,18.6574869 15.6525654,18.6574869 C13.4881675,18.6574869 11.7342408,16.9035602 11.7342408,14.7391623 C11.7342408,12.5747644 13.4881675,10.8208377 15.6525654,10.8208377 C17.8169634,10.8208377 19.5708901,12.5747644 19.5708901,14.7391623" id="Fill-18" fill="#F78B1F"></path>
                    <path d="M33.937801,14.7391623 C33.937801,16.9035602 32.1838743,18.6574869 30.0194764,18.6574869 C27.8550785,18.6574869 26.1011518,16.9035602 26.1011518,14.7391623 C26.1011518,12.5747644 27.8550785,10.8208377 30.0194764,10.8208377 C32.1838743,10.8208377 33.937801,12.5747644 33.937801,14.7391623" id="Fill-20" fill="#6DC8BF"></path>
                    <path d="M67.0157068,35.945445 C67.0157068,37.4909948 65.7633508,38.7433508 64.217801,38.7433508 L14.3162304,38.7433508 C12.7706806,38.7433508 11.5183246,37.4909948 11.5183246,35.945445 L11.5183246,32.1171728 C11.5183246,30.571623 12.7706806,29.319267 14.3162304,29.319267 L64.217801,29.319267 C65.7633508,29.319267 67.0157068,30.571623 67.0157068,32.1171728 L67.0157068,35.945445 Z" id="Fill-22" fill="#CBDB2A"></path>
                    <path d="M82.7225131,52.6993717 C82.7225131,54.2449215 81.4701571,55.4972775 79.9246073,55.4972775 L30.0230366,55.4972775 C28.4774869,55.4972775 27.2251309,54.2449215 27.2251309,52.6993717 L27.2251309,48.8710995 C27.2251309,47.3255497 28.4774869,46.0731937 30.0230366,46.0731937 L79.9246073,46.0731937 C81.4701571,46.0731937 82.7225131,47.3255497 82.7225131,48.8710995 L82.7225131,52.6993717 Z" id="Fill-24" fill="#CBDB2A"></path>
                    <path d="M67.0157068,118.667958 C67.0157068,120.213508 65.7633508,121.465864 64.217801,121.465864 L14.3162304,121.465864 C12.7706806,121.465864 11.5183246,120.213508 11.5183246,118.667958 L11.5183246,114.839686 C11.5183246,113.294136 12.7706806,112.04178 14.3162304,112.04178 L64.217801,112.04178 C65.7633508,112.04178 67.0157068,113.294136 67.0157068,114.839686 L67.0157068,118.667958 Z" id="Fill-26" fill="#CBDB2A"></path>
                    <path d="M162.303665,68.406178 C162.303665,69.9517277 161.051309,71.2040838 159.505759,71.2040838 L18.504712,71.2040838 C16.9591623,71.2040838 15.7068063,69.9517277 15.7068063,68.406178 L15.7068063,64.5779058 C15.7068063,63.032356 16.9591623,61.78 18.504712,61.78 L159.505759,61.78 C161.051309,61.78 162.303665,63.032356 162.303665,64.5779058 L162.303665,68.406178 Z" id="Fill-28" fill="#CBDB2A"></path>
                    <path d="M112.041885,102.961152 C112.041885,104.506702 110.789529,105.759058 109.243979,105.759058 L30.0230366,105.759058 C28.4774869,105.759058 27.2251309,104.506702 27.2251309,102.961152 L27.2251309,99.1328796 C27.2251309,97.5873298 28.4774869,96.3349738 30.0230366,96.3349738 L109.243979,96.3349738 C110.789529,96.3349738 112.041885,97.5873298 112.041885,99.1328796 L112.041885,102.961152 Z" id="Fill-30" fill="#CBDB2A"></path>
                    <path d="M147.643979,86.2072251 C147.643979,87.7527749 146.391623,89.0051309 144.846073,89.0051309 L52.0125654,89.0051309 C50.4670157,89.0051309 49.2146597,87.7527749 49.2146597,86.2072251 L49.2146597,82.3789529 C49.2146597,80.8334031 50.4670157,79.5810471 52.0125654,79.5810471 L144.846073,79.5810471 C146.391623,79.5810471 147.643979,80.8334031 147.643979,82.3789529 L147.643979,86.2072251 Z" id="Fill-32" fill="#CBDB2A"></path>
                </g>
            </g>
        </g>
    </g>
</svg>