<?xml version="1.0" encoding="UTF-8" standalone="no"?>
<svg width="200px" height="200px" viewBox="0 0 200 200" version="1.1" xmlns="http://www.w3.org/2000/svg" xmlns:xlink="http://www.w3.org/1999/xlink">
    <!-- Generator: Sketch 3.7.2 (28276) - http://www.bohemiancoding.com/sketch -->
    <title>Page 1</title>
    <desc>Created with Sketch.</desc>
    <defs></defs>
    <g id="Page-1" stroke="none" stroke-width="1" fill="none" fill-rule="evenodd">
        <g id="Desktop-HD" transform="translate(-860.000000, -3699.000000)">
            <g id="Group-4-Copy" transform="translate(390.000000, 3190.000000)">
                <g id="Page-1" transform="translate(470.000000, 509.000000)">
                    <path d="M34.8099612,27.7158607 C15.1203942,45.479626 2.74196426,71.1928066 2.74196426,99.7990764 C2.74196426,128.405895 15.1203942,154.119075 34.8099612,171.88284 C50.9067456,152.26072 60.5702997,127.159497 60.5702997,99.7996247 C60.5702997,72.4392038 50.9067456,47.3379807 34.8099612,27.7158607" id="Fill-1" fill="#CBDB2A"></path>
                    <path d="M164.789069,171.882786 C184.478636,154.119569 196.857066,128.40584 196.857066,99.7995699 C196.857066,71.1927517 184.478636,45.4795712 164.789069,27.7158059 C148.692285,47.3379259 139.02873,72.439149 139.02873,99.7995699 C139.02873,127.159442 148.692285,152.260666 164.789069,171.882786" id="Fill-3" fill="#CBDB2A"></path>
                    <path d="M128.370307,99.7994054 C128.370307,69.9028704 138.920541,42.4728092 156.496223,21.0208486 C140.545299,9.52087374 120.965402,2.74163525 99.7996796,2.74163525 C78.6334088,2.74163525 59.0535116,9.52087374 43.102588,21.0208486 C60.678818,42.4728092 71.2285041,69.9028704 71.2285041,99.7994054 C71.2285041,129.69594 60.678818,157.125453 43.1031364,178.577962 C59.0535116,190.077389 78.6334088,196.857176 99.7996796,196.857176 C120.965402,196.857176 140.545299,190.077389 156.496223,178.577962 C138.920541,157.125453 128.370307,129.69594 128.370307,99.7994054" id="Fill-5" fill="#CBDB2A"></path>
                    <path d="M13.6562476,57.777997 C13.2296321,57.777997 12.7969847,57.6781975 12.3917548,57.4676315 C11.0488482,56.7679382 10.5273683,55.113021 11.2265132,53.7690176 C17.6772907,41.3807174 26.890102,30.2344276 37.868597,21.534871 C39.0552242,20.5950008 40.7797817,20.7945998 41.7207486,21.981227 C42.6611671,23.1684026 42.4610197,24.8924118 41.2743925,25.8328303 C30.8952429,34.05642 22.1874611,44.5923974 16.0898204,56.3023899 C15.6017898,57.240615 14.6460175,57.777997 13.6562476,57.777997" id="Fill-7" fill="#333709"></path>
                    <path d="M4.94155654,81.9112197 C4.74908604,81.9112197 4.55442215,81.8909308 4.35920992,81.8487079 C2.87866766,81.5284721 1.9387975,80.0687671 2.25903331,78.5887732 C3.11829617,74.6203716 4.23308965,70.6667754 5.57215787,66.8376544 C6.07280049,65.4075603 7.63833684,64.6535804 9.06568924,65.1542231 C10.495235,65.6548657 11.2481182,67.2182086 10.7485723,68.6477544 C9.48298282,72.2652127 8.43015277,76.0000176 7.61859628,79.7490796 C7.34058334,81.0333129 6.20440425,81.9112197 4.94155654,81.9112197" id="Fill-9" fill="#333709"></path>
                    <path d="M99.799515,199.59903 C44.7699528,199.59903 0,154.829077 0,99.799515 C0,98.2849752 1.22720503,97.0577701 2.74174492,97.0577701 C4.25628481,97.0577701 5.48348984,98.2849752 5.48348984,99.799515 C5.48348984,151.805481 47.7935491,194.11554 99.799515,194.11554 C117.8391,194.11554 135.37201,189.007121 150.502604,179.341922 C151.778064,178.527624 153.474107,178.901049 154.288954,180.176509 C155.1038,181.452517 154.730375,183.148012 153.454366,183.962859 C137.441479,194.192309 118.887543,199.59903 99.799515,199.59903" id="Fill-11" fill="#333709"></path>
                    <path d="M167.947943,171.649847 C167.240024,171.649847 166.532106,171.377317 165.995821,170.833355 C164.932572,169.755301 164.944636,168.019228 166.02269,166.95598 C178.145041,155.000875 186.807858,140.025464 191.074561,123.649022 C191.456761,122.184382 192.953205,121.308668 194.418942,121.687029 C195.88413,122.06868 196.763134,123.566221 196.381483,125.03141 C191.864732,142.364173 182.698531,158.211458 169.873196,170.860224 C169.339104,171.387188 168.643798,171.649847 167.947943,171.649847" id="Fill-13" fill="#333709"></path>
                    <path d="M196.857285,102.54126 C195.342745,102.54126 194.11554,101.314055 194.11554,99.799515 C194.11554,47.7935491 151.805481,5.48348984 99.799515,5.48348984 C86.5333081,5.48348984 73.7079737,8.18191519 61.6793904,13.5036421 C60.2937125,14.1166962 58.6755347,13.4904817 58.0630288,12.1059005 C57.450523,10.7213193 58.0761892,9.10204478 59.4607704,8.48899062 C72.1923371,2.85634986 85.7645228,0 99.799515,0 C154.829077,0 199.59903,44.7699528 199.59903,99.799515 C199.59903,101.314055 198.371825,102.54126 196.857285,102.54126" id="Fill-15" fill="#333709"></path>
                </g>
            </g>
        </g>
    </g>
</svg>