<?xml version="1.0" encoding="UTF-8" standalone="no"?>
<svg width="244px" height="200px" viewBox="0 0 244 200" version="1.1" xmlns="http://www.w3.org/2000/svg" xmlns:xlink="http://www.w3.org/1999/xlink">
    <!-- Generator: Sketch 3.7.2 (28276) - http://www.bohemiancoding.com/sketch -->
    <title>Page 1</title>
    <desc>Created with Sketch.</desc>
    <defs>
        <polygon id="path-1" points="48.6432921 0 0 0 0 111.949686 97.2865842 111.949686 97.2865842 0 48.6432921 0"></polygon>
    </defs>
    <g id="Page-1" stroke="none" stroke-width="1" fill="none" fill-rule="evenodd">
        <g id="Desktop-HD" transform="translate(-1217.000000, -3699.000000)">
            <g id="Group-4-Copy" transform="translate(390.000000, 3190.000000)">
                <g id="Page-1" transform="translate(827.000000, 509.000000)">
                    <path d="M238.33103,62.998239 L186.835656,11.4108176 C186.427581,11.0020126 185.974931,10.6680503 185.497168,10.3957233 C180.765375,5.53660377 174.162084,2.51584906 166.850625,2.51584906 L150.425895,2.51584906 C151.904385,6.10201258 152.724931,10.0296855 152.724931,14.1510692 L152.724931,23.5850314 C152.724931,40.4315723 139.092694,54.0881761 122.276213,54.0881761 C105.459731,54.0881761 91.8274947,40.4315723 91.8274947,23.5850314 L91.8274947,14.1510692 C91.8274947,10.0296855 92.6480406,6.10201258 94.1265299,2.51584906 L77.0739922,2.51584906 C70.0199346,2.51584906 63.625076,5.32842767 58.9334622,9.89069182 C58.0300456,10.1881761 57.1793649,10.6906918 56.4611519,11.4108176 L4.96577782,62.998239 C2.51355736,65.4542138 2.51355736,69.4366038 4.96577782,71.8925786 L32.9327683,99.9101887 C35.3849888,102.366164 39.3596451,102.366164 41.8118656,99.9101887 L56.6702121,85.025283 L56.6702121,189.937233 C56.6702121,193.410818 59.4809113,196.226541 62.9482983,196.226541 L180.34851,196.226541 C183.815897,196.226541 186.626596,193.410818 186.626596,189.937233 L186.626596,85.025283 L201.484943,99.9101887 C203.936535,102.366164 207.911819,102.366164 210.363412,99.9101887 L238.33103,71.8925786 C240.782623,69.4366038 240.782623,65.4542138 238.33103,62.998239" id="Fill-1" fill="#00ADDC"></path>
                    <path d="M121.648278,57.2327044 C114.584176,57.2327044 107.823933,55.0597484 102.098946,50.9490566 C100.690143,49.9371069 100.366822,47.972327 101.376966,46.5610063 C102.386482,45.1490566 104.347756,44.8257862 105.757187,45.8377358 C110.408621,49.1773585 115.904457,50.9433962 121.648278,50.9433962 C134.566069,50.9433962 145.817655,41.7578616 148.402971,29.1018868 C148.750777,27.4006289 150.408819,26.3037736 152.107669,26.6515723 C153.806519,27 154.901418,28.6610063 154.553612,30.3622642 C151.373761,45.9320755 137.534976,57.2327044 121.648278,57.2327044" id="Fill-3" fill="#002B37"></path>
                    <path d="M185.998662,161.006289 C184.264654,161.006289 182.859619,159.598742 182.859619,157.861635 L182.859619,85.0245283 C182.859619,83.7591195 183.617384,82.6163522 184.782596,82.1257862 C185.947809,81.636478 187.291948,81.8924528 188.194736,82.7779874 L203.366987,97.663522 C204.615071,98.9125786 206.762176,98.9125786 207.987031,97.6867925 L236.036264,69.6666667 C236.640844,69.0603774 236.981744,68.2566038 236.992417,67.4069182 C237.001834,66.5767296 236.689185,65.8006289 236.111601,65.2213836 L184.838471,13.8566038 C184.611833,13.7704403 184.296045,13.6440252 183.944472,13.4433962 C183.688954,13.2981132 183.455409,13.1163522 183.250116,12.9062893 C179.095278,8.63899371 173.271725,6.28930818 166.850499,6.28930818 L154.681685,6.28930818 C155.17577,8.88176101 155.23604,11.5610063 155.23604,14.1509434 L155.23604,18.8679245 C155.23604,20.6050314 153.831004,22.0125786 152.096996,22.0125786 C150.362989,22.0125786 148.957953,20.6050314 148.957953,18.8679245 L148.957953,14.1509434 C148.957953,9.98427673 148.728803,6.91446541 147.585564,4.48490566 C147.127891,3.51069182 147.198834,2.36981132 147.774534,1.45974843 C148.350862,0.550943396 149.350962,0 150.42577,0 L166.850499,0 C174.752726,0 181.986965,2.8591195 187.296342,8.06477987 C187.732669,8.23584906 188.410075,8.54025157 189.054834,9.18679245 L240.550836,60.7748428 C244.200915,64.4308176 244.165758,70.4163522 240.47236,74.1163522 L212.423126,102.136478 C208.773675,105.793082 202.602944,105.793082 198.951609,102.133962 L189.137705,92.5062893 L189.137705,157.861635 C189.137705,159.598742 187.732669,161.006289 185.998662,161.006289" id="Fill-5" fill="#002B37"></path>
                    <path d="M180.348384,200 L62.9481727,200 C57.7844469,200 52.9032349,195.110063 52.9032349,189.937107 L52.9032349,136.477987 C52.9032349,134.740881 54.3082706,133.333333 56.042278,133.333333 C57.7762854,133.333333 59.181321,134.740881 59.181321,136.477987 L59.181321,189.937107 C59.181321,191.665409 61.2229547,193.710692 62.9481727,193.710692 L180.348384,193.710692 C181.85073,193.710692 182.859619,191.759119 182.859619,189.937107 L182.859619,175.471698 C182.859619,173.734591 184.264654,172.327044 185.998662,172.327044 C187.732669,172.327044 189.137705,173.734591 189.137705,175.471698 L189.137705,189.937107 C189.137705,194.883648 185.850499,200 180.348384,200" id="Fill-7" fill="#002B37"></path>
                    <path d="M56.042278,127.672956 C54.3082706,127.672956 52.9032349,126.265409 52.9032349,124.528302 L52.9032349,118.238994 C52.9032349,116.501887 54.3082706,115.09434 56.042278,115.09434 C57.7762854,115.09434 59.181321,116.501887 59.181321,118.238994 L59.181321,124.528302 C59.181321,126.265409 57.7762854,127.672956 56.042278,127.672956" id="Fill-9" fill="#002B37"></path>
                    <g id="Group-13">
                        <mask id="mask-2" fill="white">
                            <use xlink:href="#path-1"></use>
                        </mask>
                        <g id="Clip-12"></g>
                        <path d="M56.042278,111.949686 C54.3082706,111.949686 52.9032349,110.542138 52.9032349,108.805031 L52.9032349,92.736478 L43.7416237,102.118868 C40.0080459,105.859748 34.4180379,105.86478 30.7133393,102.153459 L2.7463488,74.1566038 C-0.915658869,70.4880503 -0.915658869,64.5207547 2.74572099,60.8534591 L54.2429785,9.34213836 C55.199131,8.38490566 56.2682891,7.83962264 57.2608545,7.46163522 C62.4829666,2.64402516 69.4893107,0 77.0738666,0 L94.1264043,0 C95.2012127,0 96.2013118,0.550943396 96.7776401,1.45974843 C97.3533406,2.36981132 97.424283,3.51069182 96.9666105,4.48490566 C95.6664188,7.24779874 94.3386036,10.5566038 94.3386036,14.1509434 L94.3386036,23.5849057 C94.3386036,27.7012579 95.2275806,31.6566038 96.9804223,35.3402516 C97.7262589,36.908805 97.0626652,38.7849057 95.4975383,39.5320755 C93.9324114,40.2805031 92.0590305,39.6138365 91.3131939,38.0465409 C89.1547879,33.5106918 88.0605174,28.645283 88.0605174,23.5849057 L88.0605174,14.1509434 C88.0605174,11.2981132 88.6537966,8.64213836 89.4479745,6.28930818 L77.0738666,6.28930818 C70.879279,6.28930818 65.2126784,8.48113208 61.1199941,12.4610063 C60.779094,12.7930818 60.3672515,13.0427673 59.9152293,13.1918239 C59.2152227,13.4226415 58.8919013,13.5798742 58.679702,13.7924528 L7.18370011,65.3018868 C5.95131179,66.536478 5.95131179,68.472327 7.18495572,69.708805 L35.1519462,97.7056604 C36.3843345,98.9389937 38.0411215,98.9358491 39.2785322,97.6968553 L53.79849,82.8257862 C54.6899782,81.9113208 56.0460448,81.6308176 57.2275806,82.1132075 C58.4091164,82.5955975 59.181321,83.7465409 59.181321,85.0245283 L59.181321,108.805031 C59.181321,110.542138 57.7762854,111.949686 56.042278,111.949686" id="Fill-11" fill="#002B37" mask="url(#mask-2)"></path>
                    </g>
                </g>
            </g>
        </g>
    </g>
</svg>