<?xml version="1.0" encoding="UTF-8" standalone="no"?>
<svg width="200px" height="138px" viewBox="0 0 200 138" version="1.1" xmlns="http://www.w3.org/2000/svg" xmlns:xlink="http://www.w3.org/1999/xlink">
    <!-- Generator: Sketch 3.7.2 (28276) - http://www.bohemiancoding.com/sketch -->
    <title>Page 1</title>
    <desc>Created with Sketch.</desc>
    <defs>
        <polygon id="path-1" points="99.9998077 122.666667 0 122.666667 0 2.72374715e-14 199.999615 0 199.999615 122.666667 99.9998077 122.666667"></polygon>
    </defs>
    <g id="Page-1" stroke="none" stroke-width="1" fill="none" fill-rule="evenodd">
        <g id="Desktop-HD" transform="translate(-860.000000, -2512.000000)">
            <g id="Group-4" transform="translate(390.000000, 2378.000000)">
                <g id="Page-1" transform="translate(470.000000, 134.000000)">
                    <path d="M196.153846,119.721612 C196.153846,127.699737 189.665385,134.166571 181.660577,134.166571 L17.3778846,134.166571 C9.37307692,134.166571 2.88461538,127.699737 2.88461538,119.721612 L2.88461538,32.6531958 C2.88461538,24.6750708 9.37307692,18.2082375 17.3778846,18.2082375 L181.660577,18.2082375 C189.665385,18.2082375 196.153846,24.6750708 196.153846,32.6531958 L196.153846,119.721612 Z" id="Fill-1" fill="#6DC8BF"></path>
                    <path d="M158.653846,18.2083333 L182.556731,18.2083333 C190.560577,18.2083333 197.115385,25.0201667 197.115385,32.9973333 L197.115385,119.668042 C197.115385,127.645208 190.560577,133.208333 182.556731,133.208333 L158.653846,133.208333" id="Fill-3" fill="#B9E5E1"></path>
                    <path d="M43.2692308,18.2083333 L18.2990385,18.2083333 C10.2942308,18.2083333 2.88461538,25.0201667 2.88461538,32.9973333 L2.88461538,119.668042 C2.88461538,127.645208 10.2942308,133.208333 18.2990385,133.208333 L43.2692308,133.208333" id="Fill-5" fill="#A7DED9"></path>
                    <path d="M43.2692308,18.2083333 L32.7923077,18.2083333 C24.7875,18.2083333 18.2692308,25.0201667 18.2692308,32.9973333 L18.2692308,119.668042 C18.2692308,127.645208 24.7875,133.208333 32.7923077,133.208333 L43.2692308,133.208333" id="Fill-7" fill="#6DC8BF"></path>
                    <path d="M158.653846,18.2083333 L172.894231,18.2083333 C180.899038,18.2083333 187.5,25.0201667 187.5,32.9973333 L187.5,119.668042 C187.5,127.645208 180.899038,133.208333 172.894231,133.208333 L158.653846,133.208333" id="Fill-9" fill="#6DC8BF"></path>
                    <path d="M51.9230769,18.2083333 L51.9230769,8.09216667 C51.9230769,5.359 49.8942308,2.875 47.1528846,2.875 L24.7115385,2.875 C21.9701923,2.875 20.1923077,5.359 20.1923077,8.09216667 L20.1923077,18.2083333 L51.9230769,18.2083333 Z" id="Fill-11" fill="#CBDB2A"></path>
                    <path d="M32.6923077,2.875 L24.7115385,2.875 C21.9701923,2.875 20.1923077,5.359 20.1923077,8.09216667 L20.1923077,18.2083333 L32.6923077,18.2083333" id="Fill-13" fill="#E0E97F"></path>
                    <path d="M35.5769231,2.875 L32.4413462,2.875 C29.7,2.875 27.8846154,5.359 27.8846154,8.09216667 L27.8846154,18.2083333 L35.5769231,18.2083333" id="Fill-15" fill="#CBDB2A"></path>
                    <path d="M196.634615,58.0355167 C194.766346,58.0355167 193.269231,56.5261417 193.269231,54.6650583 L193.269231,47.9241417 C193.269231,46.0621 194.766346,44.5536833 196.634615,44.5536833 C198.502885,44.5536833 200,46.0621 200,47.9241417 L200,54.6650583 C200,56.5261417 198.502885,58.0355167 196.634615,58.0355167" id="Fill-17" fill="#1B3E3A"></path>
                    <path d="M196.634615,42.1459667 C194.766346,42.1459667 193.269231,40.6365917 193.269231,38.7755083 L193.269231,32.9977167 C193.269231,26.8912167 188.683654,22.04205 182.556731,22.04205 L145.840385,22.04205 C143.972115,22.04205 142.457692,20.5489667 142.457692,18.6878833 C142.457692,16.8258417 143.972115,15.3337167 145.840385,15.3337167 L182.556731,15.3337167 C192.4125,15.3337167 200,23.1738417 200,32.9977167 L200,38.7755083 C200,40.6365917 198.502885,42.1459667 196.634615,42.1459667" id="Fill-19" fill="#1B3E3A"></path>
                    <path d="M132.312788,22.0416667 L121.683942,22.0416667 C119.816635,22.0416667 118.302212,20.5495417 118.302212,18.6875 C118.302212,16.8254583 119.816635,15.3333333 121.683942,15.3333333 L132.312788,15.3333333 C134.181058,15.3333333 135.694519,16.8254583 135.694519,18.6875 C135.694519,20.5495417 134.181058,22.0416667 132.312788,22.0416667" id="Fill-21" fill="#1B3E3A"></path>
                    <path d="M111.539038,22.0416667 L72.4073077,22.0416667 C70.5390385,22.0416667 69.0255769,20.5495417 69.0255769,18.6875 C69.0255769,16.8254583 70.5390385,15.3333333 72.4073077,15.3333333 L111.539038,15.3333333 C113.407308,15.3333333 114.920769,16.8254583 114.920769,18.6875 C114.920769,20.5495417 113.407308,22.0416667 111.539038,22.0416667" id="Fill-23" fill="#1B3E3A"></path>
                    <g id="Group-27" transform="translate(0.000000, 15.333333)">
                        <mask id="mask-2" fill="white">
                            <use xlink:href="#path-1"></use>
                        </mask>
                        <g id="Clip-26"></g>
                        <path d="M182.556346,122.666667 L18.2986538,122.666667 C8.44192308,122.666667 -0.000384615385,114.157625 -0.000384615385,104.334708 L-0.000384615385,17.664 C-0.000384615385,7.84108333 8.44192308,0 18.2986538,0 L60.8121154,0 C62.6803846,0 64.1938462,1.492125 64.1938462,3.35416667 C64.1938462,5.21620833 62.6803846,6.70833333 60.8121154,6.70833333 L18.2986538,6.70833333 C12.1717308,6.70833333 6.73038462,11.5575 6.73038462,17.664 L6.73038462,104.334708 C6.73038462,110.441208 12.1717308,115.958333 18.2986538,115.958333 L182.556346,115.958333 C188.683269,115.958333 193.268846,110.441208 193.268846,104.334708 L193.268846,48.96125 C193.268846,47.1001667 194.766923,45.5907917 196.634231,45.5907917 C198.5025,45.5907917 199.999615,47.1001667 199.999615,48.96125 L199.999615,104.334708 C199.999615,114.157625 192.413077,122.666667 182.556346,122.666667" id="Fill-25" fill="#1B3E3A" mask="url(#mask-2)"></path>
                    </g>
                    <path d="M52.1164423,22.0416667 L19.7481731,22.0416667 C17.8799038,22.0416667 16.34625,20.8955 16.34625,19.0344167 L16.34625,8.57325 C16.34625,3.98666667 20.1106731,0 24.7125962,0 L47.1520192,0 C51.7539423,0 54.8077885,3.98666667 54.8077885,8.57325 L54.8077885,9.88520833 C54.8077885,11.74725 53.3097115,13.2556667 51.4424038,13.2556667 C49.5741346,13.2556667 48.0770192,11.74725 48.0770192,9.88520833 L48.0770192,8.57325 C48.0770192,7.70404167 48.0250962,6.70833333 47.1520192,6.70833333 L24.7125962,6.70833333 C23.8395192,6.70833333 23.0770192,7.70404167 23.0770192,8.57325 L23.0770192,15.3333333 L52.1164423,15.3333333 C53.9847115,15.3333333 55.4981731,16.8254583 55.4981731,18.6875 C55.4981731,20.5495417 53.9847115,22.0416667 52.1164423,22.0416667" id="Fill-28" fill="#1B3E3A"></path>
                    <path d="M172.894135,76.3324958 C172.894135,97.8719958 155.373942,115.333788 133.762404,115.333788 C112.149904,115.333788 94.6297115,97.8719958 94.6297115,76.3324958 C94.6297115,54.7929958 112.149904,37.3312042 133.762404,37.3312042 C155.373942,37.3312042 172.894135,54.7929958 172.894135,76.3324958" id="Fill-30" fill="#EDF9F8"></path>
                    <path d="M172.894135,76.3324958 C172.894135,97.8719958 155.373942,115.333788 133.762404,115.333788 C112.149904,115.333788 94.6297115,97.8719958 94.6297115,76.3324958 C94.6297115,54.7929958 112.149904,37.3312042 133.762404,37.3312042 C155.373942,37.3312042 172.894135,54.7929958 172.894135,76.3324958" id="Fill-32" fill="#EDF9F8"></path>
                    <path d="M133.762212,115.334075 C112.150673,115.334075 94.6304808,97.8722833 94.6304808,76.3327833 C94.6304808,54.792325 112.150673,37.3305333 133.762212,37.3305333" id="Fill-34" fill="#FFFFFF"></path>
                    <path d="M142.94125,115.334075 C121.329712,115.334075 103.809519,97.8722833 103.809519,76.3327833 C103.809519,54.792325 121.329712,37.3305333 142.94125,37.3305333" id="Fill-36" fill="#EDF9F8"></path>
                    <path d="M95.4756731,71.6174 C95.2449038,71.6174 95.0102885,71.5934417 94.7747115,71.5445667 C92.9477885,71.160275 91.7785577,69.372025 92.1631731,67.5511917 C96.2804808,48.0874417 113.775673,33.96065 133.762212,33.96065 C141.77375,33.96065 149.578558,36.194525 156.334327,40.4198167 C157.916058,41.409775 158.393942,43.4893583 157.400673,45.066775 C156.408365,46.6432333 154.320865,47.1185667 152.738173,46.1295667 C147.062212,42.5789417 140.500673,40.7015667 133.762212,40.7015667 C116.954519,40.7015667 102.242981,52.5781917 98.7814423,68.9417333 C98.4458654,70.5287333 97.0410577,71.6174 95.4756731,71.6174" id="Fill-38" fill="#1B3E3A"></path>
                    <path d="M133.762212,118.704533 C123.639135,118.704533 113.833365,115.098325 106.14875,108.550992 C98.5516346,102.07745 93.4660577,93.127575 91.8295192,83.3516167 C91.5218269,81.51545 92.7670192,79.77895 94.6093269,79.4722833 C96.4525962,79.1675333 98.1939423,80.4066583 98.5006731,82.242825 C101.383365,99.464075 116.212212,111.963617 133.762212,111.963617 C147.840096,111.963617 160.654519,103.686492 166.409327,90.87645 C167.172788,89.177325 169.17375,88.4164083 170.877596,89.1782833 C172.582404,89.9382417 173.345865,91.9325333 172.582404,93.6316583 C165.739135,108.86245 150.501635,118.704533 133.762212,118.704533" id="Fill-40" fill="#1B3E3A"></path>
                    <path d="M172.696442,83.6909625 C172.582019,83.6909625 172.466635,83.6852125 172.350288,83.6737125 C170.492596,83.4858792 169.13875,81.8317958 169.328173,79.9793375 C169.450288,78.7766292 169.512788,77.5499625 169.512788,76.3328792 C169.512788,67.8813375 166.491635,59.6875875 161.006058,53.2600458 C159.796442,51.8426708 159.968558,49.7151708 161.391635,48.5095875 C162.81375,47.3040042 164.948365,47.4745875 166.157981,48.8929208 C172.682981,56.5375458 176.27625,66.2828375 176.27625,76.3328792 C176.27625,77.7761292 176.202212,79.2318375 176.056058,80.6607125 C175.880096,82.3962542 174.410865,83.6909625 172.696442,83.6909625" id="Fill-42" fill="#1B3E3A"></path>
                </g>
            </g>
        </g>
    </g>
</svg>