<?xml version="1.0" encoding="UTF-8" standalone="no"?>
<svg width="199px" height="199px" viewBox="0 0 199 199" version="1.1" xmlns="http://www.w3.org/2000/svg" xmlns:xlink="http://www.w3.org/1999/xlink">
    <!-- Generator: Sketch 3.7.2 (28276) - http://www.bohemiancoding.com/sketch -->
    <title>Design</title>
    <desc>Created with Sketch.</desc>
    <defs>
        <polygon id="path-1" points="22.9691429 35.2430264 22.9691429 0.0212711786 0.808995141 0.0212711786 0.808995141 35.2430264 22.9691429 35.2430264"></polygon>
    </defs>
    <g id="Page-1" stroke="none" stroke-width="1" fill="none" fill-rule="evenodd">
        <g id="Desktop-HD" transform="translate(-481.000000, -2481.000000)">
            <g id="Group-4" transform="translate(390.000000, 2378.000000)">
                <g id="Design" transform="translate(91.000000, 103.000000)">
                    <polygon id="Fill-1" fill="#F9A01B" points="2.5288 162.62212 36.3459429 196.414409 196.974514 35.902751 163.158514 2.11046246"></polygon>
                    <g id="Group-78" transform="translate(0.000000, 0.107350)">
                        <path d="M172.3656,14.7613863 L177.265029,19.6572139 C178.166743,20.5582655 179.553029,20.6336386 180.454743,19.7325871 C181.356457,18.8315355 181.281029,17.4462687 180.379314,16.5440751 L175.479886,11.6493894 C174.578171,10.7471958 173.191886,10.6718227 172.290171,11.5728743 C171.388457,12.4750678 171.463886,13.8603347 172.3656,14.7613863" id="Fill-2" fill="#3E2806"></path>
                        <g id="Group-6" transform="translate(176.000000, 20.703302)">
                            <mask id="mask-2" fill="white">
                                <use xlink:href="#path-1"></use>
                            </mask>
                            <g id="Clip-5"></g>
                            <path d="M1.56331429,34.4892616 C2.46502857,35.3903132 4.07417143,35.5376334 4.97588571,34.6354398 L22.2398857,17.3852702 C23.1416,16.4842187 23.2444571,14.6923937 22.3427429,13.7913422 L9.27874286,0.736943691 C8.37702857,-0.165249887 6.9896,-0.240623021 6.08788571,0.660428539 C5.18617143,1.56262212 5.2616,2.94788896 6.16331429,3.84894052 L17.4147429,15.0920997 L1.41702857,31.0791983 C0.514171429,31.9802499 0.6616,33.5882101 1.56331429,34.4892616" id="Fill-4" fill="#3E2806" mask="url(#mask-2)"></path>
                        </g>
                        <path d="M29.6995429,193.222585 L34.5989714,198.118412 C35.5006857,199.019464 37.0686857,199.140518 37.9704,198.239466 L174.677829,61.6336545 C175.579543,60.7326029 175.432114,59.1246427 174.5304,58.2235911 C173.628686,57.3213976 172.019543,57.1752194 171.117829,58.0762709 L36.3452571,192.74979 L33.2595429,189.665201 C32.3578286,188.76415 30.7486857,188.91147 29.8458286,189.812521 C28.9441143,190.713573 28.7978286,192.321533 29.6995429,193.222585" id="Fill-7" fill="#3E2806"></path>
                        <g id="Group-11" transform="translate(0.000000, 93.792402)" fill="#3E2806">
                            <path d="M0.771771429,70.5237867 L21.5340571,91.270813 C22.4369143,92.1730066 24.0449143,92.0256863 24.9477714,91.1246348 C25.8494857,90.2235832 25.9957714,88.615623 25.0940571,87.7145715 L6.08834286,68.7228256 L70.6403429,4.21712687 C71.5432,3.31607531 71.3957714,1.70811511 70.4940571,0.807063546 C69.5923429,-0.0939880145 67.9832,-0.241308232 67.0814857,0.660885346 L0.594628571,67.0988772 C-0.308228571,67.9999288 -0.129942857,69.6227352 0.771771429,70.5237867" id="Fill-9"></path>
                        </g>
                        <path d="M71.8938286,93.2007225 C72.7955429,94.1017741 74.4046857,94.2490943 75.3064,93.3469007 L79.7395429,88.9181581 C80.6412571,88.0171065 80.4938286,86.4091463 79.5921143,85.5080948 C78.6904,84.6070432 77.0812571,84.459723 76.1795429,85.3607745 L71.7475429,89.7906592 C70.8446857,90.6917108 70.9921143,92.299671 71.8938286,93.2007225" id="Fill-12" fill="#3E2806"></path>
                        <path d="M83.0916571,82.0111239 C83.9933714,82.9121755 85.6025143,83.0594957 86.5042286,82.1573021 L163.157943,5.56106739 L166.299657,8.70047264 C167.202514,9.6015242 168.5888,9.67689733 169.490514,8.77584577 C170.392229,7.87479421 170.3168,6.48952736 169.415086,5.5884758 L164.515657,0.692648123 C163.613943,-0.208403437 161.7648,-0.161580733 160.863086,0.739470828 L82.9453714,78.6010606 C82.0425143,79.5021122 82.1899429,81.1100724 83.0916571,82.0111239" id="Fill-14" fill="#3E2806"></path>
                        <path d="M27.1459429,171.996482 L42.3093714,187.148766 C43.2110857,188.049818 44.8202286,187.90364 45.7230857,187.002588 C46.6248,186.101537 46.7710857,184.493576 45.8693714,183.592525 L30.7059429,168.439099 C29.8042286,167.538047 28.1950857,167.685367 27.2922286,168.586419 C26.3905143,169.487471 26.2442286,171.095431 27.1459429,171.996482" id="Fill-16" fill="#3E2806"></path>
                        <path d="M46.2232,169.717587 L53.2220571,176.7113 C54.1237714,177.612352 55.2883429,177.910418 56.1900571,177.009367 C57.0917714,176.107173 56.7934857,174.9446 55.8917714,174.043548 L48.8929143,167.049835 C47.9912,166.148783 46.8266286,165.850717 45.9249143,166.751768 C45.0232,167.65282 45.3214857,168.816536 46.2232,169.717587" id="Fill-18" fill="#3E2806"></path>
                        <path d="M47.6139429,151.543526 L62.7773714,166.69581 C63.6790857,167.596861 65.2882286,167.450683 66.1910857,166.549631 C67.0928,165.64858 67.2390857,164.04062 66.3373714,163.139568 L51.1739429,147.986142 C50.2722286,147.08509 48.6630857,147.232411 47.7602286,148.133462 C46.8585143,149.034514 46.7122286,150.642474 47.6139429,151.543526" id="Fill-20" fill="#3E2806"></path>
                        <path d="M66.6912,149.26463 L73.6900571,156.258344 C74.5917714,157.159395 76.2009143,157.013217 77.1026286,156.111023 C78.0043429,155.209972 78.1517714,153.602012 77.2500571,152.70096 L70.2512,145.707247 C69.3494857,144.806195 67.7403429,144.953515 66.8374857,145.854567 C65.9357714,146.755618 65.7894857,148.363579 66.6912,149.26463" id="Fill-22" fill="#3E2806"></path>
                        <path d="M68.9718857,130.20128 L84.1353143,145.353564 C85.0370286,146.254616 86.2016,146.552682 87.1033143,145.65163 C88.0050286,144.750579 87.7067429,143.586863 86.8050286,142.685812 L71.6416,127.533528 C70.7398857,126.632476 69.5753143,126.33441 68.6736,127.235461 C67.7718857,128.136513 68.0701714,129.300228 68.9718857,130.20128" id="Fill-24" fill="#3E2806"></path>
                        <path d="M86.7142857,129.256261 L93.7131429,136.249974 C94.6148571,137.151026 96.224,137.004847 97.1257143,136.102654 C98.0274286,135.201602 98.1748571,133.593642 97.272,132.69259 L90.2742857,125.698877 C89.3714286,124.797826 87.7634286,124.945146 86.8605714,125.846197 C85.9588571,126.747249 85.8125714,128.355209 86.7142857,129.256261" id="Fill-26" fill="#3E2806"></path>
                        <path d="M88.9948571,110.19291 L104.158286,125.345194 C105.06,126.246246 106.669143,126.100068 107.572,125.199016 C108.473714,124.297965 108.62,122.690005 107.718286,121.788953 L92.5548571,106.635527 C91.6531429,105.734475 90.044,105.881796 89.1411429,106.782847 C88.2394286,107.683899 88.0931429,109.291859 88.9948571,110.19291" id="Fill-28" fill="#3E2806"></path>
                        <path d="M107.182286,108.803304 L114.181143,115.797017 C115.082857,116.698069 116.692,116.551891 117.593714,115.649697 C118.495429,114.748645 118.642857,113.140685 117.741143,112.239634 L110.742286,105.24592 C109.840571,104.344869 108.231429,104.492189 107.328571,105.393241 C106.426857,106.294292 106.280571,107.902252 107.182286,108.803304" id="Fill-30" fill="#3E2806"></path>
                        <path d="M109.462857,89.7400678 L124.626286,104.892352 C125.528,105.793403 127.137143,105.647225 128.04,104.746174 C128.941714,103.845122 129.088,102.237162 128.186286,101.33611 L113.022857,86.1826843 C112.121143,85.2816327 110.512,85.428953 109.609143,86.3300045 C108.707429,87.2310561 108.561143,88.8390163 109.462857,89.7400678" id="Fill-32" fill="#3E2806"></path>
                        <path d="M127.650286,88.3503471 L134.649143,95.3440604 C135.550857,96.2451119 137.604571,95.653547 138.506286,94.7524955 C139.409143,93.8514439 140,91.799239 139.098286,90.8970455 L132.099429,83.9044742 C131.197714,83.0022806 129.144,83.5938455 128.242286,84.4948971 C127.340571,85.3970907 126.748571,87.4492956 127.650286,88.3503471" id="Fill-34" fill="#3E2806"></path>
                        <path d="M129.485943,69.7316983 L144.649371,84.8839824 C145.551086,85.7850339 147.160229,85.6388557 148.063086,84.7378042 C148.9648,83.8367526 149.111086,82.2287924 148.209371,81.3277408 L133.045943,66.1743148 C132.144229,65.2732632 130.535086,65.4205834 129.632229,66.321635 C128.730514,67.2226866 128.584229,68.8306468 129.485943,69.7316983" id="Fill-36" fill="#3E2806"></path>
                        <path d="M148.5632,67.452803 L155.562057,74.4465163 C156.463771,75.3475678 158.072914,75.2013896 158.974629,74.2991961 C159.876343,73.3981445 160.023771,71.7901843 159.122057,70.8891327 L152.1232,63.8954195 C151.221486,62.9943679 149.612343,63.1416882 148.709486,64.0427397 C147.807771,64.9437913 147.661486,66.5517515 148.5632,67.452803" id="Fill-38" fill="#3E2806"></path>
                        <path d="M150.843771,48.3894527 L166.0072,63.5417368 C166.908914,64.4427883 168.073486,64.7408548 168.9752,63.8398033 C169.876914,62.9387517 169.578629,61.7750362 168.676914,60.8739846 L153.513486,45.7217006 C152.611771,44.820649 151.4472,44.5225825 150.545486,45.4236341 C149.643771,46.3246857 149.942057,47.4884012 150.843771,48.3894527" id="Fill-40" fill="#3E2806"></path>
                        <path d="M164.318629,30.7681275 C163.172343,31.9135708 163.172343,33.7784848 164.318629,34.9250701 C165.464914,36.0705133 167.3312,36.0705133 168.478629,34.9250701 C169.624914,33.7784848 169.624914,31.9135708 168.478629,30.7681275 C167.3312,29.6226843 165.464914,29.6226843 164.318629,30.7681275 M161.052343,27.5042424 C163.999771,24.5589801 168.796343,24.5589801 171.743771,27.5042424 C174.692343,30.4506468 174.692343,35.2425509 171.743771,38.1878132 C168.796343,41.1342175 164.000914,41.1342175 161.052343,38.1878132 C158.104914,35.2425509 158.104914,30.4495047 161.052343,27.5042424" id="Fill-42" fill="#3E2806"></path>
                        <polygon id="Fill-44" fill="#524FA1" points="18.4417143 51.544732 51.6657143 18.3451504 179.674857 146.260211 146.450857 179.459793"></polygon>
                        <polygon id="Fill-46" fill="#CBDB2A" points="51.9102857 18.1007587 6.21542857 5.86632858 18.4588571 51.5276018"></polygon>
                        <path d="M144.985029,177.995156 L159.953029,192.952155 C161.540457,194.538417 164.231886,194.8913 165.819314,193.305038 L193.619314,165.524328 C195.207886,163.938066 194.764457,161.339977 193.175886,159.752573 L178.209029,144.795574 L144.985029,177.995156 Z" id="Fill-48" fill="#CBDB2A"></path>
                        <path d="M31.8082286,10.2316893 C32.3602286,9.68009498 33.1842286,9.42999322 33.9922286,9.64583446 L38.2653714,10.7901357 C39.4710857,11.1133265 40.1865143,12.3512732 39.8630857,13.5561013 C39.5408,14.7609294 38.3008,15.4758322 37.0962286,15.1526413 L32.8230857,14.0083401 C31.6173714,13.6851493 30.9019429,12.4472026 31.2253714,11.2423745 C31.3316571,10.8460945 31.5373714,10.5023474 31.8082286,10.2316893" id="Fill-50" fill="#000000"></path>
                        <polygon id="Fill-52" fill="#7572B4" points="46.2910857 23.715943 51.1768 18.8338195 179.185943 146.748881 174.300229 151.631004"></polygon>
                        <polygon id="Fill-54" fill="#7572B4" points="18.4417143 51.544732 22.3502857 47.6390332 150.359429 175.554094 146.450857 179.459793"></polygon>
                        <path d="M2.81428571,2.46688602 L2.81428571,2.46688602 C3.38457143,1.89701945 4.21771429,1.67318408 4.99714286,1.88217322 L27.8451429,8.00110131 C29.0508571,8.32315016 29.7662857,9.56109679 29.4428571,10.7659249 C29.1205714,11.9707531 27.8805714,12.6856558 26.676,12.3624649 L7.59828571,7.24736997 L17.8062857,45.3439213 L45.7228571,17.4490095 L44.788,17.2057598 C43.5834286,16.882569 42.8725714,15.6491904 43.1948571,14.4443623 C43.5171429,13.2395341 44.7594286,12.5269154 45.9651429,12.8501063 L50.6897143,14.1166033 C51.4702857,14.3255925 52.1822857,15.0370692 52.3914286,15.8170669 C52.6005714,16.5959227 52.4805714,17.5300927 51.9102857,18.1011013 L18.4588571,51.5268024 C17.8885714,52.0978109 16.9537143,52.2177227 16.1742857,52.0087336 C15.3937143,51.7997445 14.7331429,51.1396585 14.5251429,50.3608028 L2.25542857,4.67326323 C2.04628571,3.89440751 2.244,3.0367526 2.81428571,2.46688602" id="Fill-56" fill="#000000"></path>
                        <path d="M14.9027429,48.2460154 L48.4547429,14.7186748 C49.3370286,13.8370375 50.4456,14.196773 51.3278857,15.0784102 L86.8764571,50.6008548 C87.7587429,51.4836341 87.8913143,52.7809656 87.0090286,53.6626029 C86.1267429,54.5442402 84.8273143,54.4129082 83.9450286,53.5312709 L50.1998857,19.8097874 L19.9073143,50.080095 L28.0890286,58.255796 C28.9713143,59.1374333 28.8593143,60.6802985 27.9770286,61.5619358 C27.0947429,62.443573 25.5518857,62.5554907 24.6696,61.6738535 L14.6833143,51.6949073 C13.8010286,50.81327 14.0204571,49.1276526 14.9027429,48.2460154" id="Fill-58" fill="#000000"></path>
                        <path d="M32.7704,66.3510991 C33.6526857,65.4694618 35.1955429,65.3575441 36.0778286,66.2391814 L116.7624,146.863311 C117.644686,147.744948 117.532686,149.287813 116.6504,150.16945 C115.768114,151.051088 114.224114,151.163005 113.341829,150.281368 L32.6584,69.6560968 C31.7761143,68.7744595 31.8881143,67.2327363 32.7704,66.3510991" id="Fill-60" fill="#000000"></path>
                        <path d="M119.046629,152.563918 C119.928914,151.682281 121.471771,151.570363 122.354057,152.452 L125.150629,155.245374 C126.032914,156.127012 125.920914,157.668735 125.037486,158.550372 C124.1552,159.433151 122.612343,159.545069 121.730057,158.663432 L118.934629,155.868916 C118.052343,154.987278 118.164343,153.445555 119.046629,152.563918" id="Fill-62" fill="#000000"></path>
                        <path d="M97.3937143,64.0401131 C98.276,63.1584758 99.5742857,63.2898078 100.457714,64.171445 L179.943429,143.599882 C180.825714,144.48152 180.766286,145.170156 179.884,146.051793 L146.332,179.579134 C145.449714,180.460771 144.181143,181.098017 143.298857,180.216379 L126.124,163.054145 C125.241714,162.172508 125.353714,160.629643 126.236,159.748005 C127.118286,158.866368 128.662286,158.75445 129.544571,159.636088 L144.984571,175.065882 L175.277143,144.795574 L97.5251429,67.1018611 C96.6428571,66.2190819 96.5114286,64.9217503 97.3937143,64.0401131" id="Fill-64" fill="#000000"></path>
                        <path d="M89.4051429,56.0574129 C90.2874286,55.1757757 91.5857143,55.3071076 92.4691429,56.1887449 L95.6645714,59.381825 C96.5468571,60.2634622 96.6782857,61.5619358 95.796,62.443573 C94.9137143,63.3252103 93.6142857,63.1938783 92.732,62.3122411 L89.5365714,59.119161 C88.6542857,58.2363817 88.5228571,56.9390502 89.4051429,56.0574129" id="Fill-66" fill="#000000"></path>
                        <path d="M190.912,168.230566 L193.619429,165.525128 C195.208,163.937724 194.764571,161.339635 193.176,159.752231 L178.209143,144.795232 L172.834286,150.166139" id="Fill-68" fill="#E0E97F"></path>
                        <path d="M166.971314,192.153657 L165.819314,193.30481 C164.231886,194.891072 161.540457,194.538189 159.953029,192.951927 L144.985029,177.994928 L148.8936,174.089229" id="Fill-70" fill="#E0E97F"></path>
                        <path d="M189.661371,156.239843 C190.543657,155.358206 191.841943,155.489538 192.725371,156.371175 L195.041943,158.686044 C197.0168,160.660591 197.851086,164.225969 194.686514,167.388215 L184.780229,177.28722 C183.897943,178.168857 182.599657,178.300189 181.717371,177.418552 C180.835086,176.536914 180.966514,175.239583 181.8488,174.357945 L191.755086,164.458941 C192.545943,163.667523 192.613371,162.118947 192.109371,161.61646 L189.7928,159.301591 C188.910514,158.418812 188.779086,157.12148 189.661371,156.239843" id="Fill-72" fill="#000000"></path>
                        <path d="M171.863086,184.336092 L176.256229,179.946178 C177.139657,179.063399 178.437943,178.932067 179.320229,179.813704 C180.202514,180.695341 180.071086,181.993815 179.1888,182.875452 L174.794514,187.265366 C173.912229,188.147004 172.613943,188.279478 171.731657,187.39784 C170.849371,186.515061 170.9808,185.21773 171.863086,184.336092" id="Fill-74" fill="#000000"></path>
                        <path d="M143.400457,176.649175 L176.952457,143.121834 C177.834743,142.240197 179.061029,142.71756 179.943314,143.599197 L185.934171,149.586793 C186.816457,150.468431 186.949029,151.765762 186.066743,152.647399 C185.184457,153.529037 183.885029,153.397705 183.002743,152.516067 L178.208457,147.725305 L147.917029,177.995613 L161.8176,191.885968 C162.523886,192.591735 163.248457,192.944618 163.954743,192.238851 L167.869029,188.327442 C168.751314,187.445805 170.0496,187.313331 170.931886,188.194968 C171.814171,189.077748 171.682743,190.375079 170.800457,191.256716 L166.886171,195.168125 C164.410743,197.641735 160.872457,197.776493 158.398171,195.304025 L143.299886,180.216836 C142.416457,179.335199 142.518171,177.530812 143.400457,176.649175" id="Fill-76" fill="#000000"></path>
                    </g>
                </g>
            </g>
        </g>
    </g>
</svg>