<?xml version="1.0" encoding="UTF-8" standalone="no"?>
<svg width="132px" height="200px" viewBox="0 0 132 200" version="1.1" xmlns="http://www.w3.org/2000/svg" xmlns:xlink="http://www.w3.org/1999/xlink">
    <!-- Generator: Sketch 3.7.2 (28276) - http://www.bohemiancoding.com/sketch -->
    <title>Page 1</title>
    <desc>Created with Sketch.</desc>
    <defs>
        <polygon id="path-1" points="22.3109827 0 0 0 0 22.2378613 0 44.4757225 22.3109827 44.4757225 22.3109827 0"></polygon>
    </defs>
    <g id="Page-1" stroke="none" stroke-width="1" fill="none" fill-rule="evenodd">
        <g id="Desktop-HD" transform="translate(-894.000000, -2887.000000)">
            <g id="Group-4" transform="translate(390.000000, 2378.000000)">
                <g id="Page-1" transform="translate(504.000000, 509.000000)">
                    <polygon id="Fill-1" fill="#F15A22" points="1.15606936 196.531792 130.635838 196.531792 130.635838 1.15606936 1.15606936 1.15606936"></polygon>
                    <g id="Group-51">
                        <g id="Group-4">
                            <mask id="mask-2" fill="white">
                                <use xlink:href="#path-1"></use>
                            </mask>
                            <g id="Clip-3"></g>
                            <path d="M1.73410405,44.4757225 C0.85433526,44.4757225 0,43.7624277 0,42.882659 L0,1.44797688 C0,0.568208092 0.713294798,-0.000578034682 1.59306358,-0.000578034682 L20.716763,-0.000578034682 C21.5965318,-0.000578034682 22.3109827,0.853757225 22.3109827,1.73352601 C22.3109827,2.61445087 21.5965318,3.46763006 20.716763,3.46763006 L3.46820809,3.46763006 L3.46820809,42.882659 C3.46820809,43.7624277 2.61387283,44.4757225 1.73410405,44.4757225" id="Fill-2" fill="#3C1707" mask="url(#mask-2)"></path>
                        </g>
                        <path d="M1.73410405,179.135838 C0.85433526,179.135838 0,178.422543 0,177.542775 L0,56.4283237 C0,55.5473988 0.85433526,54.834104 1.73410405,54.834104 C2.61387283,54.834104 3.46820809,55.5473988 3.46820809,56.4283237 L3.46820809,177.542775 C3.46820809,178.422543 2.61387283,179.135838 1.73410405,179.135838" id="Fill-5" fill="#3C1707"></path>
                        <path d="M107.568786,200 L1.59421965,200 C0.713294798,200 0,198.74104 0,197.861272 L0,187.900578 C0,187.020809 0.85433526,186.307514 1.73410405,186.307514 C2.61387283,186.307514 3.46820809,187.020809 3.46820809,187.900578 L3.46820809,196.531792 L107.568786,196.531792 C108.448555,196.531792 109.16185,197.386127 109.16185,198.265896 C109.16185,199.145665 108.448555,200 107.568786,200" id="Fill-7" fill="#3C1707"></path>
                        <path d="M129.480925,200 L117.528324,200 C116.648555,200 115.93526,199.145665 115.93526,198.265896 C115.93526,197.386127 116.648555,196.531792 117.528324,196.531792 L128.323699,196.531792 L128.323699,137.701734 C128.323699,136.821965 129.178035,136.108671 130.057803,136.108671 C130.937572,136.108671 131.791908,136.821965 131.791908,137.701734 L131.791908,197.861272 C131.791908,198.74104 130.360694,200 129.480925,200" id="Fill-9" fill="#3C1707"></path>
                        <path d="M130.057803,128.93711 C129.178035,128.93711 128.323699,128.223815 128.323699,127.344046 L128.323699,111.805318 C128.323699,110.925549 129.178035,110.212254 130.057803,110.212254 C130.937572,110.212254 131.791908,110.925549 131.791908,111.805318 L131.791908,127.344046 C131.791908,128.223815 130.937572,128.93711 130.057803,128.93711" id="Fill-11" fill="#3C1707"></path>
                        <path d="M130.057803,106.228208 C129.178035,106.228208 128.323699,105.514913 128.323699,104.635145 L128.323699,3.46867052 L122.309827,3.46867052 C121.430058,3.46867052 120.715607,2.61433526 120.715607,1.73456647 C120.715607,0.853641618 121.430058,0.000462427746 122.309827,0.000462427746 L129.480925,0.000462427746 C130.360694,0.000462427746 131.791908,0.568092486 131.791908,1.44786127 L131.791908,104.635145 C131.791908,105.514913 130.937572,106.228208 130.057803,106.228208" id="Fill-13" fill="#3C1707"></path>
                        <path d="M111.154335,3.46820809 L46.2144509,3.46820809 C45.3346821,3.46820809 44.6213873,2.61387283 44.6213873,1.73410405 C44.6213873,0.85433526 45.3346821,0 46.2144509,0 L111.154335,0 C112.034104,0 112.747399,0.85433526 112.747399,1.73410405 C112.747399,2.61387283 112.034104,3.46820809 111.154335,3.46820809" id="Fill-15" fill="#3C1707"></path>
                        <path d="M37.4498266,3.46820809 L28.2868208,3.46820809 C27.407052,3.46820809 26.6926012,2.61387283 26.6926012,1.73410405 C26.6926012,0.85433526 27.407052,0 28.2868208,0 L37.4498266,0 C38.3295954,0 39.0428902,0.85433526 39.0428902,1.73410405 C39.0428902,2.61387283 38.3295954,3.46820809 37.4498266,3.46820809" id="Fill-17" fill="#3C1707"></path>
                        <path d="M65.7862428,152.741734 C56.3249711,152.741734 48.6544509,145.071214 48.6544509,135.609942 C48.6544509,126.148671 56.3249711,118.479306 65.7862428,118.479306 C75.2475145,118.479306 82.9180347,126.148671 82.9180347,135.609942 C82.9180347,145.071214 75.2475145,152.741734 65.7862428,152.741734 M65.7862428,90.3914451 C40.8128324,90.3914451 20.5677457,110.636532 20.5677457,135.609942 C20.5677457,160.584509 40.8128324,180.829595 65.7862428,180.829595 C90.7596532,180.829595 111.00474,160.584509 111.00474,135.609942 C111.00474,110.636532 90.7596532,90.3914451 65.7862428,90.3914451" id="Fill-19" fill="#CBDB2A"></path>
                        <path d="M21.7343353,147.460925 C21.0094798,147.460925 20.3539884,146.963815 20.1840462,146.227399 C19.380578,142.767283 18.9736416,139.196185 18.9736416,135.610058 C18.9736416,109.797341 39.9736416,88.7984971 65.7863584,88.7984971 C69.3539884,88.7984971 72.9100578,89.2008092 76.3539884,89.996185 C77.2106358,90.1938728 77.745896,91.0493642 77.5482081,91.9071676 C77.3505202,92.7649711 76.4938728,93.3013873 75.6372254,93.1013873 C72.4279769,92.3603468 69.113526,91.9857803 65.7863584,91.9857803 C41.7308671,91.9857803 22.1609249,111.555723 22.1609249,135.610058 C22.1609249,138.95341 22.5401156,142.28289 23.2880925,145.507168 C23.4869364,146.363815 22.9528324,147.220462 22.096185,147.419306 C21.9747977,147.447052 21.8534104,147.460925 21.7343353,147.460925" id="Fill-21" fill="#333709"></path>
                        <path d="M65.7862428,182.422659 C56.8209249,182.422659 48.1099422,179.880462 40.5920231,175.071214 C33.274104,170.390289 27.4093642,163.791445 23.6313295,155.989133 C23.2475145,155.197225 23.5781503,154.243468 24.3712139,153.860809 C25.1631214,153.475838 26.1157225,153.80763 26.4995376,154.599538 C30.0209249,161.87237 35.4879769,168.022659 42.3099422,172.386821 C49.3134104,176.867746 57.4313295,179.235376 65.7862428,179.235376 C89.8417341,179.235376 109.411676,159.665434 109.411676,135.609942 C109.411676,124.483931 105.222081,113.888555 97.6163006,105.777572 C97.0139884,105.134798 97.0463584,104.126705 97.6879769,103.524393 C98.3307514,102.922081 99.3388439,102.954451 99.9411561,103.597225 C108.103006,112.301272 112.59896,123.671214 112.59896,135.609942 C112.59896,161.422659 91.5989595,182.422659 65.7862428,182.422659" id="Fill-23" fill="#333709"></path>
                        <path d="M95.34,102.979538 C94.9712139,102.979538 94.6001156,102.85237 94.2983815,102.591098 C93.7619653,102.127514 93.205896,101.669711 92.6463584,101.232717 C91.9538728,100.69052 91.8313295,99.6893642 92.373526,98.9957225 C92.9168786,98.303237 93.9180347,98.1795376 94.6105202,98.7228902 C95.2105202,99.1910983 95.807052,99.6824277 96.3827746,100.180694 C97.0486705,100.756416 97.1215029,101.762197 96.5457803,102.428092 C96.2313295,102.792254 95.7862428,102.979538 95.34,102.979538" id="Fill-25" fill="#333709"></path>
                        <path d="M89.2795376,98.5609249 C88.9974566,98.5609249 88.7107514,98.4857803 88.4517919,98.3273988 C87.2217341,97.5782659 85.9408092,96.8823121 84.6448555,96.2603468 C83.8517919,95.88 83.5165318,94.9273988 83.8980347,94.1343353 C84.2783815,93.3412717 85.2298266,93.0060116 86.0252023,93.3875145 C87.4147977,94.0557225 88.7893642,94.8013873 90.1107514,95.6060116 C90.8621965,96.063815 91.1003468,97.0441618 90.6425434,97.7956069 C90.3419653,98.2880925 89.8171098,98.5609249 89.2795376,98.5609249" id="Fill-27" fill="#333709"></path>
                        <path d="M79.3284393,147.696301 C78.9873988,147.696301 78.6428902,147.58763 78.3527168,147.362197 C77.6579191,146.822312 77.5307514,145.821156 78.0706358,145.125202 C80.1989595,142.383006 81.323815,139.091676 81.323815,135.610751 C81.323815,127.043121 74.3538728,120.073179 65.7862428,120.073179 C61.6579191,120.073179 57.7700578,121.674335 54.840578,124.583006 C54.2151445,125.203815 53.207052,125.199191 52.5862428,124.574913 C51.9665896,123.950636 51.9700578,122.941387 52.5943353,122.320578 C56.1261272,118.816532 60.8105202,116.885896 65.7862428,116.885896 C76.1110983,116.885896 84.5110983,125.285896 84.5110983,135.610751 C84.5110983,139.806127 83.1550289,143.772601 80.5885549,147.080116 C80.274104,147.48474 79.8035838,147.696301 79.3284393,147.696301" id="Fill-29" fill="#333709"></path>
                        <path d="M49.7018497,131.293642 C49.5191908,131.293642 49.3342197,131.262428 49.1527168,131.195376 C48.3261272,130.892486 47.9018497,129.975723 48.205896,129.150289 C48.522659,128.289017 48.9076301,127.441618 49.3504046,126.631214 C49.773526,125.85896 50.7411561,125.575723 51.5134104,125.998844 C52.2856647,126.420809 52.5689017,127.389595 52.1469364,128.16185 C51.7793064,128.833526 51.4590751,129.53526 51.1978035,130.248555 C50.9608092,130.893642 50.3504046,131.293642 49.7018497,131.293642" id="Fill-31" fill="#333709"></path>
                        <path d="M65.7862428,154.33526 C55.4613873,154.33526 47.0613873,145.93526 47.0613873,135.610405 C47.0613873,134.730636 47.7746821,134.016185 48.6544509,134.016185 C49.5353757,134.016185 50.2486705,134.730636 50.2486705,135.610405 C50.2486705,144.178035 57.2186127,151.147977 65.7862428,151.147977 C68.823237,151.147977 71.7642775,150.272832 74.2914451,148.616185 C75.0278613,148.134104 76.0151445,148.338728 76.4972254,149.075145 C76.9804624,149.811561 76.7746821,150.8 76.0382659,151.282081 C72.9908671,153.279769 69.4452023,154.33526 65.7862428,154.33526" id="Fill-33" fill="#333709"></path>
                        <path d="M77.6699422,48.7330636 C77.6699422,55.2821965 72.3612717,60.5908671 65.8121387,60.5908671 C59.2630058,60.5908671 53.9531792,55.2821965 53.9531792,48.7330636 C53.9531792,42.1839306 59.2630058,36.8752601 65.8121387,36.8752601 C72.3612717,36.8752601 77.6699422,42.1839306 77.6699422,48.7330636 M97.1115607,48.7330636 C97.1115607,31.4463584 83.0988439,17.4324855 65.8121387,17.4324855 C48.5254335,17.4324855 34.5115607,31.4463584 34.5115607,48.7330636 C34.5115607,66.0197688 48.5254335,80.0336416 65.8121387,80.0336416 C83.0988439,80.0336416 97.1115607,66.0197688 97.1115607,48.7330636" id="Fill-35" fill="#CBDB2A"></path>
                        <path d="M65.8119075,81.6268208 C47.6743353,81.6268208 32.9182659,66.8707514 32.9182659,48.7331792 C32.9182659,46.2152601 33.203815,43.7065896 33.7679769,41.2742197 C33.9656647,40.4164162 34.8257803,39.8834682 35.6801156,40.0811561 C36.5379191,40.28 37.0708671,41.1354913 36.8720231,41.9932948 C36.3633526,44.1898266 36.1055491,46.4580347 36.1055491,48.7331792 C36.1055491,65.113526 49.4315607,78.4395376 65.8119075,78.4395376 C68.0766474,78.4395376 70.3344509,78.1840462 72.520578,77.6788439 C73.3783815,77.48 74.2338728,78.0164162 74.4315607,78.8742197 C74.6292486,79.7308671 74.0939884,80.5863584 73.237341,80.7852023 C70.8165318,81.3435838 68.3182659,81.6268208 65.8119075,81.6268208" id="Fill-37" fill="#333709"></path>
                        <path d="M88.6484393,71.7316763 C88.2576879,71.7316763 87.8669364,71.5883237 87.5582659,71.3004624 C86.9166474,70.6981503 86.8842775,69.6900578 87.4865896,69.0484393 C92.6657803,63.5235838 95.5178035,56.309711 95.5178035,48.7328324 C95.5178035,32.3524855 82.1917919,19.026474 65.8114451,19.026474 C54.4958382,19.026474 43.994104,25.6114451 39.0588439,35.8021965 C38.6750289,36.594104 37.7224277,36.925896 36.9305202,36.5420809 C36.1386127,36.1582659 35.8068208,35.2056647 36.1906358,34.4126012 C41.6553757,23.1305202 53.2819653,15.8391908 65.8114451,15.8391908 C83.9490173,15.8391908 98.7050867,30.5952601 98.7050867,48.7328324 C98.7050867,57.1224277 95.5467052,65.1108671 89.8114451,71.2287861 C89.4981503,71.5628902 89.0738728,71.7316763 88.6484393,71.7316763" id="Fill-39" fill="#333709"></path>
                        <path d="M85.0854335,74.9916763 C84.6114451,74.9916763 84.1443931,74.7824277 83.8299422,74.3801156 C83.2865896,73.6876301 83.4091329,72.6853179 84.1016185,72.1431214 C84.4819653,71.8448555 84.8611561,71.5338728 85.2276301,71.2171098 C85.8923699,70.6413873 86.8993064,70.7142197 87.4750289,71.3812717 C88.0507514,72.0471676 87.9779191,73.052948 87.3108671,73.6286705 C86.9062428,73.9789595 86.4877457,74.3234682 86.0669364,74.652948 C85.7756069,74.8806936 85.4287861,74.9916763 85.0854335,74.9916763" id="Fill-41" fill="#333709"></path>
                        <path d="M79.3443931,78.5590751 C78.7501734,78.5590751 78.1802312,78.2261272 77.9062428,77.6550289 C77.525896,76.8608092 77.86,75.9093642 78.6542197,75.5278613 C79.5339884,75.105896 80.4056647,74.6319075 81.2461272,74.1209249 C81.9975723,73.6631214 82.9779191,73.9012717 83.4357225,74.6527168 C83.893526,75.4041618 83.6553757,76.3845087 82.9039306,76.8434682 C81.9744509,77.4099422 81.0079769,77.9336416 80.0322543,78.4018497 C79.810289,78.5082081 79.5756069,78.5590751 79.3443931,78.5590751" id="Fill-43" fill="#333709"></path>
                        <path d="M65.8119075,62.1848555 C62.237341,62.1848555 58.8720231,60.7987283 56.3356069,58.2796532 C55.7101734,57.66 55.7067052,56.6507514 56.3263584,56.026474 C56.9471676,55.4010405 57.9564162,55.3987283 58.5806936,56.0183815 C60.5159538,57.9397688 63.0847399,58.9975723 65.8119075,58.9975723 C71.4720231,58.9975723 76.0766474,54.392948 76.0766474,48.7328324 C76.0766474,46.4322543 75.3332948,44.26 73.9275145,42.4472832 C73.3876301,41.7524855 73.5147977,40.7513295 74.2095954,40.2114451 C74.9055491,39.6715607 75.9067052,39.7987283 76.4454335,40.493526 C78.2893642,42.8692486 79.2639306,45.7189595 79.2639306,48.7328324 C79.2639306,56.1501734 73.2292486,62.1848555 65.8119075,62.1848555" id="Fill-45" fill="#333709"></path>
                        <path d="M55.4043931,56.0127168 C54.8402312,56.0127168 54.2945665,55.7132948 54.0043931,55.183815 C53.686474,54.6023121 53.4101734,53.9930636 53.1824277,53.3734104 C52.8795376,52.5468208 53.302659,51.6323699 54.1292486,51.3283237 C54.9558382,51.0254335 55.8714451,51.4485549 56.1743353,52.2751445 C56.3477457,52.7468208 56.5581503,53.2104046 56.8009249,53.6531792 C57.2228902,54.4254335 56.9396532,55.3942197 56.1685549,55.816185 C55.9246243,55.9491329 55.6621965,56.0127168 55.4043931,56.0127168" id="Fill-47" fill="#333709"></path>
                        <path d="M53.9536416,50.326474 C53.0738728,50.326474 52.360578,49.6131792 52.360578,48.7334104 C52.360578,41.3160694 58.394104,35.2813873 65.8114451,35.2813873 C68.4403468,35.2813873 70.9860116,36.0397688 73.176763,37.4744509 C73.9131792,37.9576879 74.1189595,38.9449711 73.6368786,39.6813873 C73.1536416,40.4178035 72.1663584,40.6235838 71.4299422,40.1403468 C69.760578,39.0467052 67.8172254,38.4686705 65.8114451,38.4686705 C60.1513295,38.4686705 55.5467052,43.0732948 55.5467052,48.7334104 C55.5467052,49.6131792 54.8334104,50.326474 53.9536416,50.326474" id="Fill-49" fill="#333709"></path>
                    </g>
                </g>
            </g>
        </g>
    </g>
</svg>