<?xml version="1.0" encoding="UTF-8" standalone="no"?>
<svg width="231px" height="113px" viewBox="0 0 231 113" version="1.1" xmlns="http://www.w3.org/2000/svg" xmlns:xlink="http://www.w3.org/1999/xlink">
    <!-- Generator: Sketch 3.7.2 (28276) - http://www.bohemiancoding.com/sketch -->
    <title>Page 1</title>
    <desc>Created with Sketch.</desc>
    <defs></defs>
    <g id="Page-1" stroke="none" stroke-width="1" fill="none" fill-rule="evenodd">
        <g id="Desktop-HD" transform="translate(-1224.000000, -2931.000000)">
            <g id="Group-4" transform="translate(390.000000, 2378.000000)">
                <g id="Page-1" transform="translate(834.000000, 553.000000)">
                    <polygon id="Fill-1" fill="#00ADDC" points="46.966805 72.779661 184.033195 72.779661 184.033195 40.220339 46.966805 40.220339"></polygon>
                    <g id="Group-42">
                        <path d="M67.5746888,42.1355932 L62.7821577,42.1355932 C61.7239668,42.1355932 60.8651452,41.2775593 60.8651452,40.220339 C60.8651452,39.1631186 61.7239668,38.3050847 62.7821577,38.3050847 L67.5746888,38.3050847 C68.6328797,38.3050847 69.4917012,39.1631186 69.4917012,40.220339 C69.4917012,41.2775593 68.6328797,42.1355932 67.5746888,42.1355932" id="Fill-2" fill="#000000"></path>
                        <path d="M172.051867,42.1355932 L75.7219917,42.1355932 C74.6638008,42.1355932 73.8049793,41.2775593 73.8049793,40.220339 C73.8049793,39.1631186 74.6638008,38.3050847 75.7219917,38.3050847 L172.051867,38.3050847 C173.110058,38.3050847 173.96888,39.1631186 173.96888,40.220339 C173.96888,41.2775593 173.110058,42.1355932 172.051867,42.1355932" id="Fill-4" fill="#000000"></path>
                        <path d="M184.033195,74.6949153 L151.443983,74.6949153 C150.385793,74.6949153 149.526971,73.8368814 149.526971,72.779661 C149.526971,71.7224407 150.385793,70.8644068 151.443983,70.8644068 L182.116183,70.8644068 L182.116183,39.7415254 C182.116183,38.6843051 182.975004,37.8262712 184.033195,37.8262712 C185.091386,37.8262712 185.950207,38.6843051 185.950207,39.7415254 L185.950207,72.3008475 C185.950207,73.3580678 185.091386,74.6949153 184.033195,74.6949153" id="Fill-6" fill="#000000"></path>
                        <path d="M144.73444,74.6949153 L136.107884,74.6949153 C135.049693,74.6949153 134.190871,73.8368814 134.190871,72.779661 C134.190871,71.7224407 135.049693,70.8644068 136.107884,70.8644068 L144.73444,70.8644068 C145.792631,70.8644068 146.651452,71.7224407 146.651452,72.779661 C146.651452,73.8368814 145.792631,74.6949153 144.73444,74.6949153" id="Fill-8" fill="#000000"></path>
                        <path d="M127.002075,74.6949153 L46.966805,74.6949153 C45.9086141,74.6949153 45.0497925,73.3580678 45.0497925,72.3008475 L45.0497925,39.7415254 C45.0497925,38.6843051 45.9086141,38.3050847 46.966805,38.3050847 L56.5518672,38.3050847 C57.6100581,38.3050847 58.4688797,39.1631186 58.4688797,40.220339 C58.4688797,41.2775593 57.6100581,42.1355932 56.5518672,42.1355932 L48.8838174,42.1355932 L48.8838174,70.8644068 L127.002075,70.8644068 C128.060266,70.8644068 128.919087,71.7224407 128.919087,72.779661 C128.919087,73.8368814 128.060266,74.6949153 127.002075,74.6949153" id="Fill-10" fill="#000000"></path>
                        <path d="M32.5892116,78.5254237 C32.5892116,84.3430085 27.8685685,89.059322 22.0456432,89.059322 L12.4605809,89.059322 C6.6376556,89.059322 1.91701245,84.3430085 1.91701245,78.5254237 L1.91701245,36.3898305 C1.91701245,30.5722458 6.6376556,25.8559322 12.4605809,25.8559322 L22.0456432,25.8559322 C27.8685685,25.8559322 32.5892116,30.5722458 32.5892116,36.3898305 L32.5892116,78.5254237 Z" id="Fill-12" fill="#F78B1F"></path>
                        <path d="M22.0456432,90.9745763 L12.4605809,90.9745763 C5.5900083,90.9745763 0,84.9108814 0,78.0466102 L0,51.7118644 C0,50.6546441 0.858821577,49.7966102 1.91701245,49.7966102 C2.97520332,49.7966102 3.8340249,50.6546441 3.8340249,51.7118644 L3.8340249,78.0466102 C3.8340249,82.7983559 7.70447303,87.1440678 12.4605809,87.1440678 L22.0456432,87.1440678 C26.801751,87.1440678 30.6721992,82.7983559 30.6721992,78.0466102 L30.6721992,36.3898305 C30.6721992,31.6380847 26.801751,27.7711864 22.0456432,27.7711864 L12.4605809,27.7711864 C7.70447303,27.7711864 3.8340249,31.6380847 3.8340249,36.3898305 C3.8340249,37.4470508 2.97520332,38.3050847 1.91701245,38.3050847 C0.858821577,38.3050847 0,37.4470508 0,36.3898305 C0,29.5255593 5.5900083,23.940678 12.4605809,23.940678 L22.0456432,23.940678 C28.9162158,23.940678 34.5062241,29.5255593 34.5062241,36.3898305 L34.5062241,78.0466102 C34.5062241,84.9108814 28.9162158,90.9745763 22.0456432,90.9745763" id="Fill-14" fill="#000000"></path>
                        <path d="M1.91701245,46.9237288 C0.858821577,46.9237288 0,46.0656949 0,45.0084746 L0,42.6144068 C0,41.5571864 0.858821577,40.6991525 1.91701245,40.6991525 C2.97520332,40.6991525 3.8340249,41.5571864 3.8340249,42.6144068 L3.8340249,45.0084746 C3.8340249,46.0656949 2.97520332,46.9237288 1.91701245,46.9237288" id="Fill-16" fill="#000000"></path>
                        <path d="M48.8838174,1.91525424 L33.1374772,1.91525424 C24.3652282,1.91525424 17.253112,8.36104237 17.253112,17.1262034 L17.253112,95.0339576 C17.253112,103.799119 24.3652282,111.084746 33.1374772,111.084746 L48.8838174,111.084746 L48.8838174,1.91525424 Z" id="Fill-18" fill="#00ADDC"></path>
                        <path d="M48.8838174,113 L36.0254564,113 C26.1643444,113 15.3360996,102.086881 15.3360996,92.1486271 L15.3360996,74.2161017 C15.3360996,73.1588814 16.1949212,72.3008475 17.253112,72.3008475 C18.3113029,72.3008475 19.1701245,73.1588814 19.1701245,74.2161017 L19.1701245,92.1486271 C19.1701245,99.9437119 28.3066058,109.169492 36.0254564,109.169492 L46.966805,109.169492 L46.966805,18.6737288 C46.966805,17.6165085 47.8256266,16.7584746 48.8838174,16.7584746 C49.9420083,16.7584746 50.8008299,17.6165085 50.8008299,18.6737288 L50.8008299,111.084746 C50.8008299,112.141966 49.9420083,113 48.8838174,113" id="Fill-20" fill="#000000"></path>
                        <path d="M17.253112,67.5127119 C16.1949212,67.5127119 15.3360996,66.654678 15.3360996,65.5974576 L15.3360996,59.8516949 C15.3360996,58.7944746 16.1949212,57.9364407 17.253112,57.9364407 C18.3113029,57.9364407 19.1701245,58.7944746 19.1701245,59.8516949 L19.1701245,65.5974576 C19.1701245,66.654678 18.3113029,67.5127119 17.253112,67.5127119" id="Fill-22" fill="#000000"></path>
                        <path d="M17.253112,56.0211864 C16.1949212,56.0211864 15.3360996,55.1631525 15.3360996,54.1059322 L15.3360996,14.2408729 C15.3360996,10.6852034 16.7776929,7.48864407 19.5046432,4.99785593 C20.2858257,4.28442373 21.4983361,4.33805085 22.2124232,5.11947458 C22.9265104,5.89994068 22.872834,7.11133898 22.0916515,7.82477119 C20.1525934,9.59638136 19.1701245,11.7539153 19.1701245,14.2408729 L19.1701245,54.1059322 C19.1701245,55.1631525 18.3113029,56.0211864 17.253112,56.0211864" id="Fill-24" fill="#000000"></path>
                        <path d="M48.8838174,11.0127119 C47.8256266,11.0127119 46.966805,10.154678 46.966805,9.09745763 L46.966805,3.83050847 L36.0254564,3.83050847 C34.0375145,3.83050847 31.9824772,3.81901695 30.0817593,4.24994915 C29.1596763,4.45966949 28.2682656,4.59661017 27.4305311,4.8944322 C26.4356017,5.24971186 25.3371535,4.66938983 24.9815477,3.67345763 C24.6259419,2.67752542 25.1464108,1.55231356 26.1432573,1.1970339 C27.1238091,0.8475 28.1628299,0.772805085 29.2334813,0.529567797 C31.4390041,0.0296864407 33.724083,0 36.0254564,0 L48.8838174,0 C49.9420083,0 50.8008299,0.379220339 50.8008299,1.43644068 L50.8008299,9.09745763 C50.8008299,10.154678 49.9420083,11.0127119 48.8838174,11.0127119" id="Fill-26" fill="#000000"></path>
                        <path d="M229.082988,36.3898305 C229.082988,30.5722458 224.362344,25.8559322 218.539419,25.8559322 L208.954357,25.8559322 C203.131432,25.8559322 198.410788,30.5722458 198.410788,36.3898305 L198.410788,78.5254237 C198.410788,84.3430085 203.131432,89.059322 208.954357,89.059322 L218.539419,89.059322 C224.362344,89.059322 229.082988,84.3430085 229.082988,78.5254237 L229.082988,36.3898305 Z" id="Fill-28" fill="#F78B1F"></path>
                        <path d="M227.165975,36.3898305 C227.165975,31.6294661 223.304154,27.7711864 218.539419,27.7711864 L208.954357,27.7711864 C204.189622,27.7711864 200.327801,31.6294661 200.327801,36.3898305 L200.327801,78.5254237 C200.327801,83.2857881 204.189622,87.1440678 208.954357,87.1440678 L218.539419,87.1440678 C223.304154,87.1440678 227.165975,83.2857881 227.165975,78.5254237 L227.165975,36.3898305 Z M231,78.5254237 C231,85.4011864 225.421494,90.9745763 218.539419,90.9745763 L208.954357,90.9745763 C202.072282,90.9745763 196.493776,85.4011864 196.493776,78.5254237 L196.493776,36.3898305 C196.493776,29.5140678 202.072282,23.940678 208.954357,23.940678 L218.539419,23.940678 C225.421494,23.940678 231,29.5140678 231,36.3898305 L231,78.5254237 Z" id="Fill-30" fill="#000000"></path>
                        <path d="M182.116183,1.91525424 L197.862523,1.91525424 C206.634772,1.91525424 213.746888,8.36104237 213.746888,17.1262034 L213.746888,95.0339576 C213.746888,103.799119 206.634772,111.084746 197.862523,111.084746 L182.116183,111.084746 L182.116183,1.91525424 Z" id="Fill-32" fill="#00ADDC"></path>
                        <path d="M194.97416,113 L182.115799,113 C181.057608,113 180.198787,112.141966 180.198787,111.084746 L180.198787,98.6355932 C180.198787,97.5783729 181.057608,96.720339 182.115799,96.720339 C183.174949,96.720339 184.032812,97.5783729 184.032812,98.6355932 L184.032812,109.169492 L194.97416,109.169492 C202.693011,109.169492 211.829492,99.9437119 211.829492,92.1486271 L211.829492,64.6398305 C211.829492,63.5826102 212.688314,62.7245763 213.746505,62.7245763 C214.805654,62.7245763 215.663517,63.5826102 215.663517,64.6398305 L215.663517,92.1486271 C215.663517,102.086881 204.836231,113 194.97416,113" id="Fill-34" fill="#000000"></path>
                        <path d="M213.746888,61.7669492 C212.688697,61.7669492 211.829876,60.9089153 211.829876,59.8516949 L211.829876,56.0211864 C211.829876,54.9639661 212.688697,54.1059322 213.746888,54.1059322 C214.805079,54.1059322 215.6639,54.9639661 215.6639,56.0211864 L215.6639,59.8516949 C215.6639,60.9089153 214.805079,61.7669492 213.746888,61.7669492" id="Fill-36" fill="#000000"></path>
                        <path d="M182.116183,82.8347458 C181.057992,82.8347458 180.19917,81.9767119 180.19917,80.9194915 L180.19917,1.43644068 C180.19917,0.379220339 181.057992,0 182.116183,0 L194.974544,0 C205.255481,0 215.6639,4.57745763 215.6639,14.2408729 L215.6639,48.8389831 C215.6639,49.8962034 214.805079,50.7542373 213.746888,50.7542373 C212.688697,50.7542373 211.829876,49.8962034 211.829876,48.8389831 L211.829876,14.2408729 C211.829876,6.25138983 201.749266,3.83050847 194.974544,3.83050847 L184.033195,3.83050847 L184.033195,80.9194915 C184.033195,81.9767119 183.174373,82.8347458 182.116183,82.8347458" id="Fill-38" fill="#000000"></path>
                        <path d="M182.116183,93.8474576 C181.057992,93.8474576 180.19917,92.9894237 180.19917,91.9322034 L180.19917,86.6652542 C180.19917,85.6080339 181.057992,84.75 182.116183,84.75 C183.174373,84.75 184.033195,85.6080339 184.033195,86.6652542 L184.033195,91.9322034 C184.033195,92.9894237 183.174373,93.8474576 182.116183,93.8474576" id="Fill-40" fill="#000000"></path>
                    </g>
                </g>
            </g>
        </g>
    </g>
</svg>