<?xml version="1.0" encoding="UTF-8" standalone="no"?>
<svg width="127px" height="199px" viewBox="0 0 127 199" version="1.1" xmlns="http://www.w3.org/2000/svg" xmlns:xlink="http://www.w3.org/1999/xlink">
    <!-- Generator: Sketch 3.7.2 (28276) - http://www.bohemiancoding.com/sketch -->
    <title>Page 1</title>
    <desc>Created with Sketch.</desc>
    <defs>
        <polygon id="path-1" points="27.6012195 0 0 0 0 48.019105 0 96.03821 27.6012195 96.03821 27.6012195 0"></polygon>
        <polygon id="path-3" points="13.2396785 0 0.141674058 0 0.141674058 5.76824602 13.2396785 5.76824602 13.2396785 0"></polygon>
        <polygon id="path-5" points="81.1751663 15.4848187 81.1751663 0 0.190354767 0 0.190354767 30.9696373 81.1751663 30.9696373 81.1751663 15.4848187"></polygon>
    </defs>
    <g id="Page-1" stroke="none" stroke-width="1" fill="none" fill-rule="evenodd">
        <g id="Desktop-HD" transform="translate(-1275.000000, -2481.000000)">
            <g id="Group-4" transform="translate(390.000000, 2378.000000)">
                <g id="Page-1" transform="translate(885.000000, 103.000000)">
                    <path d="M119.056508,2.88383457 L25.4954213,2.88383457 L21.2855543,2.88383457 L13.799745,2.88383457 C8.11692905,2.88383457 2.88233925,7.25948674 2.88233925,12.9475461 L2.88233925,151.979063 C2.88233925,157.66568 8.11692905,162.96867 13.799745,162.96867 L21.2855543,162.96867 L25.4954213,162.96867 L119.056508,162.96867 C121.640654,162.96867 123.946641,160.180887 123.946641,157.596454 L123.946641,7.33015483 C123.946641,4.74427996 121.640654,2.88383457 119.056508,2.88383457" id="Fill-1" fill="#F14950"></path>
                    <path d="M119.056508,2.88383457 L34.8519623,2.88383457 L30.6406541,2.88383457 L23.156286,2.88383457 C17.4720288,2.88383457 12.971031,7.25948674 12.971031,12.9475461 L12.971031,151.979063 C12.971031,157.66568 17.4720288,162.96867 23.156286,162.96867 L30.6406541,162.96867 L34.8519623,162.96867 L119.056508,162.96867 C121.640654,162.96867 123.946641,160.180887 123.946641,157.596454 L123.946641,7.33015483 C123.946641,4.74427996 121.640654,2.88383457 119.056508,2.88383457" id="Fill-3" fill="#ED1C24"></path>
                    <polygon id="Fill-5" fill="#33B874" points="51.8847007 195.74741 39.6341463 186.384611 27.383592 195.74741 27.383592 162.968959 51.8847007 162.968959"></polygon>
                    <polygon id="Fill-7" fill="#00A651" points="51.8847007 195.74741 41.7960089 186.384611 31.7073171 193.40671 31.7073171 162.968959 51.8847007 162.968959"></polygon>
                    <g id="Group-11" transform="translate(23.059867, 160.084836)" fill="#000000">
                        <path d="M28.8670621,38.9394104 C28.1781486,38.9394104 27.4921175,38.7216373 26.9170621,38.2961866 L16.23602,30.3784772 L5.55497783,38.2961866 C4.56052106,39.0331538 3.0717184,39.1456458 1.96628603,38.5889544 C0.8622949,38.032263 0.000432372505,36.9001315 0.000432372505,35.662719 L0.000432372505,3.36307953 C0.000432372505,1.55311135 1.79621951,-0.000144220573 3.60497783,-0.000144220573 L28.8670621,-0.000144220573 C30.6758204,-0.000144220573 31.7077494,1.55311135 31.7077494,3.36307953 L31.7077494,12.2571622 C31.7077494,14.0671304 30.6340244,15.5338537 28.8252661,15.5338537 C27.0165078,15.5338537 25.9427827,14.0671304 25.9427827,12.2571622 L25.9427827,7.21088441 L7.2066408,7.21088441 L7.2066408,29.156929 L14.4503215,23.6664517 C15.6076386,22.8083393 17.2838027,22.8083393 18.442561,23.6664517 L25.9427827,29.156929 L25.9427827,22.5559533 C25.9427827,20.7459852 27.0165078,19.2778197 28.8252661,19.2778197 C30.6340244,19.2778197 31.7077494,20.7459852 31.7077494,22.5559533 L31.7077494,35.662719 C31.7077494,36.9001315 31.227816,38.032263 30.1223836,38.5889544 C29.6568625,38.8240339 29.3700554,38.9394104 28.8670621,38.9394104" id="Fill-9"></path>
                    </g>
                    <path d="M120.459845,165.853082 L102.448647,165.853082 C100.64133,165.853082 99.1741463,164.057536 99.1741463,162.247567 C99.1741463,160.437599 100.64133,158.642053 102.448647,158.642053 L119.861729,158.642053 C120.026031,158.642053 119.622483,157.788267 119.622483,156.191745 L119.622483,38.9274401 C119.622483,37.1174719 121.416829,35.6507487 123.225588,35.6507487 C125.034346,35.6507487 126.828692,37.1174719 126.828692,38.9274401 L126.828692,156.191745 C126.828692,164.853633 122.35796,165.853082 120.459845,165.853082" id="Fill-12" fill="#000000"></path>
                    <path d="M88.8829601,165.853082 L15.2038027,165.853082 C7.67331486,165.853082 0.000144124168,158.109879 0.000144124168,150.574354 L0.000144124168,128.338426 C0.000144124168,126.528458 1.79449002,125.061735 3.60324834,125.061735 C5.41200665,125.061735 7.20635255,126.528458 7.20635255,128.338426 L7.20635255,150.574354 C7.20635255,154.458214 11.3210976,158.642053 15.2038027,158.642053 L88.8829601,158.642053 C90.6917184,158.642053 92.1574612,160.437599 92.1574612,162.247567 C92.1574612,164.057536 90.6917184,165.853082 88.8829601,165.853082" id="Fill-14" fill="#000000"></path>
                    <path d="M3.60310421,118.507775 C1.7943459,118.507775 0,117.041052 0,115.231084 L0,102.591593 C0,100.781625 1.7943459,99.3149014 3.60310421,99.3149014 C5.41186253,99.3149014 7.20620843,100.781625 7.20620843,102.591593 L7.20620843,115.231084 C7.20620843,117.041052 5.41186253,118.507775 3.60310421,118.507775" id="Fill-16" fill="#000000"></path>
                    <g id="Group-20">
                        <mask id="mask-2" fill="white">
                            <use xlink:href="#path-1"></use>
                        </mask>
                        <g id="Clip-19"></g>
                        <path d="M3.60310421,96.03821 C1.7943459,96.03821 0,94.5714867 0,92.7615186 L0,11.5422609 C0,3.78896288 7.83314856,-0.00115376458 15.2036585,-0.00115376458 L24.3252772,-0.00115376458 C26.1340355,-0.00115376458 27.6012195,1.07473171 27.6012195,2.88325769 C27.6012195,4.69322587 26.1340355,5.76766914 24.3252772,5.76766914 L15.2036585,5.76766914 C11.610643,5.76766914 7.20620843,7.83002333 7.20620843,11.5422609 L7.20620843,92.7615186 C7.20620843,94.5714867 5.41186253,96.03821 3.60310421,96.03821" id="Fill-18" fill="#000000" mask="url(#mask-2)"></path>
                    </g>
                    <g id="Group-23" transform="translate(30.266075, 0.000000)">
                        <mask id="mask-4" fill="white">
                            <use xlink:href="#path-3"></use>
                        </mask>
                        <g id="Clip-22"></g>
                        <path d="M9.96517738,5.76824602 L3.41617517,5.76824602 C1.60741685,5.76824602 0.141674058,4.69380276 0.141674058,2.88383457 C0.141674058,1.07386638 1.60741685,-0.000576882291 3.41617517,-0.000576882291 L9.96517738,-0.000576882291 C11.7739357,-0.000576882291 13.2396785,1.07386638 13.2396785,2.88383457 C13.2396785,4.69380276 11.7739357,5.76824602 9.96517738,5.76824602" id="Fill-21" fill="#000000" mask="url(#mask-4)"></path>
                    </g>
                    <g id="Group-26" transform="translate(45.654102, 0.000000)">
                        <mask id="mask-6" fill="white">
                            <use xlink:href="#path-5"></use>
                        </mask>
                        <g id="Clip-25"></g>
                        <path d="M77.5720621,30.9696373 C75.7633038,30.9696373 73.9689579,29.5029141 73.9689579,27.6929459 L73.9689579,5.76853446 L3.46485588,5.76853446 C1.6575388,5.76853446 0.190354767,4.6940912 0.190354767,2.88412301 C0.190354767,1.07415483 1.6575388,-0.000288441145 3.46485588,-0.000288441145 L74.8063193,-0.000288441145 C79.1732816,-0.000288441145 81.1751663,1.55440933 81.1751663,5.92573489 L81.1751663,27.6929459 C81.1751663,29.5029141 79.3808204,30.9696373 77.5720621,30.9696373" id="Fill-24" fill="#000000" mask="url(#mask-6)"></path>
                    </g>
                </g>
            </g>
        </g>
    </g>
</svg>