<?xml version="1.0" encoding="UTF-8" standalone="no"?>
<svg width="200px" height="124px" viewBox="0 0 200 124" version="1.1" xmlns="http://www.w3.org/2000/svg" xmlns:xlink="http://www.w3.org/1999/xlink">
    <!-- Generator: Sketch 3.7.2 (28276) - http://www.bohemiancoding.com/sketch -->
    <title>Page 1</title>
    <desc>Created with Sketch.</desc>
    <defs></defs>
    <g id="Page-1" stroke="none" stroke-width="1" fill="none" fill-rule="evenodd">
        <g id="Desktop-HD" transform="translate(-481.000000, -2925.000000)">
            <g id="Group-4" transform="translate(390.000000, 2378.000000)">
                <g id="Page-1" transform="translate(91.000000, 547.000000)">
                    <path d="M196.162303,87.8701818 L181.772,30.4835152 C181.292,28.572 180.618061,26.7610909 179.781697,25.0592727 C174.402303,12.1550303 161.671394,2.80472727 146.816848,2.80472727 C135.485939,2.80472727 125.396242,8.772 118.855636,16.0447273 L80.6774545,16.0447273 C74.1380606,8.772 64.0471515,2.80472727 52.7174545,2.80472727 C37.8629091,2.80472727 25.1307879,12.0168485 19.7526061,24.922303 C18.9162424,26.6229091 18.242303,28.5029091 17.762303,30.4156364 L3.372,87.8362424 C-0.293454545,102.453212 8.58412121,117.290788 23.202303,120.956242 C37.8192727,124.621697 52.6398788,115.752606 56.3053333,101.135636 L59.9513939,86.602303 C62.5853333,88.1344242 65.6435152,88.7283636 68.9101818,88.7283636 C78.7695758,88.7283636 86.7610909,81.4992727 86.7610909,70.5901818 L112.773212,70.5901818 C112.773212,81.4992727 120.764727,88.7307879 130.624121,88.7307879 C133.890788,88.7307879 136.94897,87.9938182 139.582909,86.461697 L143.22897,101.071394 C146.894424,115.688364 161.71503,124.603515 176.332,120.938061 C190.94897,117.272606 199.827758,102.487152 196.162303,87.8701818" id="Fill-1" fill="#6DC8BF"></path>
                    <path d="M60.1620606,23.1156364 C60.1620606,27.0380606 56.9826667,30.2174545 53.0602424,30.2174545 C49.1390303,30.2174545 45.9596364,27.0380606 45.9596364,23.1156364 C45.9596364,19.1932121 49.1390303,16.0138182 53.0602424,16.0138182 C56.9826667,16.0138182 60.1620606,19.1932121 60.1620606,23.1156364" id="Fill-3" fill="#E5E1E1"></path>
                    <path d="M60.1620606,48.2066667 C60.1620606,52.1290909 56.9826667,55.3084848 53.0602424,55.3084848 C49.1390303,55.3084848 45.9596364,52.1290909 45.9596364,48.2066667 C45.9596364,44.2842424 49.1390303,41.1048485 53.0602424,41.1048485 C56.9826667,41.1048485 60.1620606,44.2842424 60.1620606,48.2066667" id="Fill-5" fill="#E5E1E1"></path>
                    <path d="M65.606303,42.7624242 C61.6838788,42.7624242 58.5044848,39.5830303 58.5044848,35.6606061 C58.5044848,31.7393939 61.6838788,28.56 65.606303,28.56 C69.5287273,28.56 72.7081212,31.7393939 72.7081212,35.6606061 C72.7081212,39.5830303 69.5287273,42.7624242 65.606303,42.7624242" id="Fill-7" fill="#E5E1E1"></path>
                    <path d="M40.5152727,42.7624242 C36.5928485,42.7624242 33.4134545,39.5830303 33.4134545,35.6606061 C33.4134545,31.7393939 36.5928485,28.56 40.5152727,28.56 C44.437697,28.56 47.6170909,31.7393939 47.6170909,35.6606061 C47.6170909,39.5830303 44.437697,42.7624242 40.5152727,42.7624242" id="Fill-9" fill="#E5E1E1"></path>
                    <path d="M59.652,22.6055758 C59.652,26.528 56.4726061,29.7073939 52.5501818,29.7073939 C48.6289697,29.7073939 45.4495758,26.528 45.4495758,22.6055758 C45.4495758,18.6831515 48.6289697,15.5037576 52.5501818,15.5037576 C56.4726061,15.5037576 59.652,18.6831515 59.652,22.6055758" id="Fill-11" fill="#ED1C24"></path>
                    <path d="M59.652,47.6967273 C59.652,51.6191515 56.4726061,54.7985455 52.5501818,54.7985455 C48.6289697,54.7985455 45.4495758,51.6191515 45.4495758,47.6967273 C45.4495758,43.774303 48.6289697,40.5949091 52.5501818,40.5949091 C56.4726061,40.5949091 59.652,43.774303 59.652,47.6967273" id="Fill-13" fill="#ED1C24"></path>
                    <path d="M65.0962424,42.2523636 C61.1738182,42.2523636 57.9944242,39.0729697 57.9944242,35.1505455 C57.9944242,31.2293333 61.1738182,28.0499394 65.0962424,28.0499394 C69.0186667,28.0499394 72.1980606,31.2293333 72.1980606,35.1505455 C72.1980606,39.0729697 69.0186667,42.2523636 65.0962424,42.2523636" id="Fill-15" fill="#ED1C24"></path>
                    <path d="M40.0052121,42.2523636 C36.0827879,42.2523636 32.9033939,39.0729697 32.9033939,35.1505455 C32.9033939,31.2293333 36.0827879,28.0499394 40.0052121,28.0499394 C43.9276364,28.0499394 47.1070303,31.2293333 47.1070303,35.1505455 C47.1070303,39.0729697 43.9276364,42.2523636 40.0052121,42.2523636" id="Fill-17" fill="#ED1C24"></path>
                    <path d="M82.2987879,67.6544242 C82.2987879,73.9926061 77.1606061,79.1295758 70.8236364,79.1295758 C64.4854545,79.1295758 59.3472727,73.9926061 59.3472727,67.6544242 C59.3472727,61.3162424 64.4854545,56.1792727 70.8236364,56.1792727 C77.1606061,56.1792727 82.2987879,61.3162424 82.2987879,67.6544242" id="Fill-19" fill="#F6F9D4"></path>
                    <path d="M80.2586667,66.1243636 C80.2586667,72.4625455 75.1204848,77.5995152 68.7835152,77.5995152 C62.4453333,77.5995152 57.3071515,72.4625455 57.3071515,66.1243636 C57.3071515,59.7861818 62.4453333,54.6492121 68.7835152,54.6492121 C75.1204848,54.6492121 80.2586667,59.7861818 80.2586667,66.1243636" id="Fill-21" fill="#CBDB2A"></path>
                    <path d="M68.7831515,79.1299394 C61.6122424,79.1299394 55.7770909,73.296 55.7770909,66.1238788 C55.7770909,63.0681212 56.858303,60.0984242 58.8231515,57.7614545 C59.3661818,57.1141818 60.3310303,57.0305455 60.978303,57.5735758 C61.6255758,58.1178182 61.7092121,59.0826667 61.1661818,59.7299394 C59.6643636,61.5166061 58.837697,63.7869091 58.837697,66.1238788 C58.837697,71.6075152 63.2995152,76.0693333 68.7831515,76.0693333 C69.628,76.0693333 70.3128485,76.7541818 70.3128485,77.6002424 C70.3128485,78.4450909 69.628,79.1299394 68.7831515,79.1299394" id="Fill-23" fill="#333709"></path>
                    <path d="M74.7450909,77.4624242 C74.2287273,77.4624242 73.7244848,77.2018182 73.4372121,76.7278788 C72.9972121,76.0066667 73.226303,75.0648485 73.9475152,74.6248485 C76.9414545,72.8030303 78.7281212,69.6248485 78.7281212,66.1242424 C78.7281212,60.6406061 74.2675152,56.1787879 68.7826667,56.1787879 C67.6832727,56.1787879 66.6032727,56.3569697 65.5741818,56.7072727 C64.7741818,56.9812121 63.9050909,56.5533333 63.6323636,55.7533333 C63.3596364,54.9533333 63.7875152,54.0842424 64.5875152,53.8115152 C65.9341818,53.3521212 67.346303,53.1181818 68.7826667,53.1181818 C75.9547879,53.1181818 81.7887273,58.9533333 81.7887273,66.1242424 C81.7887273,70.7012121 79.4517576,74.8563636 75.5390303,77.2393939 C75.2905455,77.3909091 75.0166061,77.4624242 74.7450909,77.4624242" id="Fill-25" fill="#333709"></path>
                    <path d="M139.372242,22.0956364 C139.372242,26.0180606 142.551636,29.1974545 146.474061,29.1974545 C150.395273,29.1974545 153.574667,26.0180606 153.574667,22.0956364 C153.574667,18.1732121 150.395273,14.9938182 146.474061,14.9938182 C142.551636,14.9938182 139.372242,18.1732121 139.372242,22.0956364" id="Fill-27" fill="#E5E1E1"></path>
                    <path d="M139.372242,47.1866667 C139.372242,51.1090909 142.551636,54.2884848 146.474061,54.2884848 C150.395273,54.2884848 153.574667,51.1090909 153.574667,47.1866667 C153.574667,43.2642424 150.395273,40.0848485 146.474061,40.0848485 C142.551636,40.0848485 139.372242,43.2642424 139.372242,47.1866667" id="Fill-29" fill="#E5E1E1"></path>
                    <path d="M133.928,41.7424242 C137.850424,41.7424242 141.029818,38.5630303 141.029818,34.6406061 C141.029818,30.7193939 137.850424,27.54 133.928,27.54 C130.005576,27.54 126.826182,30.7193939 126.826182,34.6406061 C126.826182,38.5630303 130.005576,41.7424242 133.928,41.7424242" id="Fill-31" fill="#E5E1E1"></path>
                    <path d="M159.01903,41.7424242 C162.941455,41.7424242 166.120848,38.5630303 166.120848,34.6406061 C166.120848,30.7193939 162.941455,27.54 159.01903,27.54 C155.096606,27.54 151.917212,30.7193939 151.917212,34.6406061 C151.917212,38.5630303 155.096606,41.7424242 159.01903,41.7424242" id="Fill-33" fill="#E5E1E1"></path>
                    <path d="M139.882303,22.6055758 C139.882303,26.528 143.061697,29.7073939 146.984121,29.7073939 C150.905333,29.7073939 154.084727,26.528 154.084727,22.6055758 C154.084727,18.6831515 150.905333,15.5037576 146.984121,15.5037576 C143.061697,15.5037576 139.882303,18.6831515 139.882303,22.6055758" id="Fill-35" fill="#ED1C24"></path>
                    <path d="M139.882303,47.6967273 C139.882303,51.6191515 143.061697,54.7985455 146.984121,54.7985455 C150.905333,54.7985455 154.084727,51.6191515 154.084727,47.6967273 C154.084727,43.774303 150.905333,40.5949091 146.984121,40.5949091 C143.061697,40.5949091 139.882303,43.774303 139.882303,47.6967273" id="Fill-37" fill="#ED1C24"></path>
                    <path d="M134.437939,42.2523636 C138.360364,42.2523636 141.539758,39.0729697 141.539758,35.1505455 C141.539758,31.2293333 138.360364,28.0499394 134.437939,28.0499394 C130.515515,28.0499394 127.336121,31.2293333 127.336121,35.1505455 C127.336121,39.0729697 130.515515,42.2523636 134.437939,42.2523636" id="Fill-39" fill="#ED1C24"></path>
                    <path d="M159.529091,42.2523636 C163.451515,42.2523636 166.630909,39.0729697 166.630909,35.1505455 C166.630909,31.2293333 163.451515,28.0499394 159.529091,28.0499394 C155.606667,28.0499394 152.427273,31.2293333 152.427273,35.1505455 C152.427273,39.0729697 155.606667,42.2523636 159.529091,42.2523636" id="Fill-41" fill="#ED1C24"></path>
                    <path d="M119.785576,68.6744242 C119.785576,75.0126061 124.923758,80.1495758 131.260727,80.1495758 C137.598909,80.1495758 142.737091,75.0126061 142.737091,68.6744242 C142.737091,62.3362424 137.598909,57.1992727 131.260727,57.1992727 C124.923758,57.1992727 119.785576,62.3362424 119.785576,68.6744242" id="Fill-43" fill="#F6F9D4"></path>
                    <path d="M119.275636,66.1243636 C119.275636,72.4625455 124.413818,77.5995152 130.750788,77.5995152 C137.08897,77.5995152 142.227152,72.4625455 142.227152,66.1243636 C142.227152,59.7861818 137.08897,54.6492121 130.750788,54.6492121 C124.413818,54.6492121 119.275636,59.7861818 119.275636,66.1243636" id="Fill-45" fill="#CBDB2A"></path>
                    <path d="M14.6652121,44.8033939 C14.4591515,44.8033939 14.2506667,44.7779394 14.0421818,44.7258182 C12.6761212,44.384 11.8470303,42.9973333 12.1900606,41.6324848 L15.2894545,29.2809697 C15.7755152,27.3415758 16.4761212,25.4482424 17.4300606,23.4967273 C18.8894545,20.0155152 20.8579394,16.7767273 23.2833939,13.8700606 C24.1864242,12.7888485 25.7949091,12.6433939 26.8749091,13.5464242 C27.9573333,14.4482424 28.1027879,16.0567273 27.1997576,17.1379394 C25.0858182,19.6712727 23.3718788,22.4955152 22.1064242,25.5318788 C22.0870303,25.5803636 22.0652121,25.6288485 22.0421818,25.6761212 C21.2312727,27.3246061 20.6397576,28.9100606 20.2361212,30.5221818 L17.1367273,42.873697 C16.8458182,44.0312727 15.8070303,44.8033939 14.6652121,44.8033939" id="Fill-47" fill="#1B3230"></path>
                    <path d="M30.5686061,12.884 C29.8134545,12.884 29.0643636,12.5494545 28.5613333,11.9094545 C27.6922424,10.8015758 27.8837576,9.19915152 28.9916364,8.32884848 C29.7346667,7.74460606 30.508,7.18218182 31.2910303,6.65612121 C32.4607273,5.87187879 34.0449697,6.18339394 34.8304242,7.35187879 C35.6146667,8.52157576 35.3043636,10.1058182 34.1346667,10.8912727 C33.4558788,11.3470303 32.7855758,11.8330909 32.1419394,12.3385455 C31.6752727,12.7058182 31.1201212,12.884 30.5686061,12.884" id="Fill-49" fill="#1B3230"></path>
                    <path d="M104.612364,19.6814545 L80.6778182,19.6814545 C79.8778182,19.6814545 79.1238788,19.0026667 78.6426667,18.3638788 C72.5093333,10.2341818 63.0608485,5.41963636 52.7178182,5.41963636 C48.6414545,5.41963636 44.6681212,6.06206061 40.905697,7.47781818 C39.585697,7.97357576 38.1166061,7.26933333 37.6208485,5.95175758 C37.1250909,4.6329697 37.7905455,3.14327273 39.1093333,2.64751515 C43.4475152,1.01357576 48.025697,0.000242424243 52.7178182,0.000242424243 C64.2390303,0.000242424243 74.8099394,5.136 81.9214545,13.6208485 L104.612364,13.6208485 C106.020848,13.6208485 107.162667,15.2426667 107.162667,16.6511515 C107.162667,18.0596364 106.020848,19.6814545 104.612364,19.6814545" id="Fill-51" fill="#1B3230"></path>
                    <g id="Group-55" transform="translate(116.151515, 0.082424)" fill="#1B3230">
                        <path d="M60.1791515,122.824 C59.0373333,122.824 57.9985455,122.051879 57.7076364,120.893091 C57.3646061,119.528242 58.1949091,118.142788 59.5609697,117.799758 C65.5718788,116.293091 70.7621818,112.610667 74.1779394,107.433697 C74.8458182,106.419152 75.4458182,105.347636 75.9597576,104.24703 C76.5876364,102.901576 77.0967273,101.494303 77.473697,100.065212 C78.5294545,96.0555152 78.5512727,91.7985455 77.5379394,87.753697 L63.1464242,30.3670303 C62.7233939,28.6785455 62.1161212,27.024 61.3415758,25.4482424 C61.3185455,25.4009697 61.2967273,25.3524848 61.2761212,25.304 C56.1827879,13.0821818 44.1670303,5.18521212 30.6652121,5.18521212 C20.3221818,5.18521212 10.873697,9.84824242 4.74036364,17.9779394 C3.89187879,19.1027879 2.29309091,19.3258182 1.16945455,18.4773333 C0.0446060606,17.6300606 -0.179636364,16.0300606 0.668848485,14.9064242 C7.77430303,5.4870303 18.7076364,0.0846060606 30.6652121,0.0846060606 C46.2058182,0.0846060606 60.0482424,9.18157576 65.953697,23.2700606 C66.8700606,25.1452121 67.5900606,27.1161212 68.0930909,29.1270303 L82.4846061,86.513697 C83.7076364,91.3900606 83.6797576,96.5258182 82.4046061,101.364606 C81.9512727,103.08703 81.3379394,104.782788 80.5815758,106.404606 C79.9621818,107.729455 79.2409697,109.020364 78.4349091,110.24097 C74.3149091,116.48703 68.0530909,120.928242 60.8009697,122.746424 C60.5924848,122.798545 60.384,122.824 60.1791515,122.824" id="Fill-53"></path>
                    </g>
                    <path d="M166.090788,123.498667 C165.979273,123.498667 165.866545,123.491394 165.752606,123.476848 C163.833818,123.222303 161.925939,122.77503 160.083515,122.149576 C158.750182,121.696242 158.036242,120.247758 158.489576,118.914424 C158.942909,117.581091 160.38897,116.867152 161.724727,117.320485 C163.252,117.839273 164.832606,118.210182 166.422909,118.419879 C167.819273,118.605333 168.801091,119.886545 168.615636,121.282909 C168.445939,122.565333 167.350182,123.498667 166.090788,123.498667" id="Fill-56" fill="#1B3230"></path>
                    <path d="M29.8867879,123.718788 C27.4528485,123.718788 25.0031515,123.418182 22.5813333,122.810909 C6.62618182,118.809697 -3.09987879,102.579394 0.898909091,86.6315152 L9.07951515,54.0278788 C9.42254545,52.6630303 10.8104242,51.8339394 12.1728485,52.1757576 C13.5401212,52.5175758 14.3692121,53.9030303 14.0261818,55.2690909 L5.84557576,87.8727273 C2.53042424,101.092121 10.5946667,114.547879 23.8213333,117.864242 C30.2298182,119.470303 36.8807273,118.484848 42.5498182,115.087273 C48.2189091,111.689697 52.2249697,106.288485 53.8322424,99.8787879 L57.478303,85.3369697 C57.6722424,84.5587879 58.2213333,83.9187879 58.9607273,83.6060606 C59.6989091,83.2957576 60.5413333,83.3490909 61.2334545,83.7515152 C63.9219394,85.3163636 66.5049697,86.1090909 68.9110303,86.1090909 C77.3473939,86.1090909 84.2116364,79.1842424 84.2116364,70.9066667 C84.2116364,69.4981818 85.3534545,68.1660606 86.7619394,68.1660606 L112.772848,68.1660606 C114.181333,68.1660606 115.323152,69.4981818 115.323152,70.9066667 C115.323152,79.1830303 122.187394,86.0109091 130.623758,86.0109091 C133.193455,86.0109091 135.776485,85.3139394 138.301333,83.8448485 C138.992242,83.4424242 139.833455,83.4121212 140.572848,83.7236364 C141.31103,84.0339394 141.860121,84.6860606 142.056485,85.4630303 L145.701333,99.9333333 C147.168,105.784242 150.709818,110.882424 155.674667,114.286061 C156.837091,115.082424 157.132848,116.671515 156.336485,117.832727 C155.540121,118.993939 153.954667,119.292121 152.79103,118.495758 C146.798303,114.386667 142.524364,108.237576 140.755879,101.181818 L137.877091,89.7612121 C135.494061,90.7127273 133.032242,91.4969697 130.623758,91.4969697 C120.250424,91.4969697 111.661333,83.9236364 110.386182,74.2266667 L89.1486061,74.2266667 C87.8734545,83.9236364 79.2831515,91.4993939 68.9110303,91.4993939 C66.5437576,91.4993939 64.1134545,90.8327273 61.6528485,89.8 L58.7789091,101.191515 C56.8407273,108.922424 52.008,115.4 45.1716364,119.498182 C40.4758788,122.311515 35.2213333,123.718788 29.8867879,123.718788" id="Fill-58" fill="#1B3230"></path>
                    <path d="M119.056,66.7752727 C119.017212,66.7752727 118.977212,66.7740606 118.937212,66.7704242 C118.094788,66.7061818 117.464485,65.9704242 117.528727,65.128 C117.795394,61.6649697 119.394182,58.5122424 122.030545,56.2504242 C124.669333,53.9898182 128.030545,52.8928485 131.492364,53.1570909 C134.539636,53.3910303 137.418424,54.6964848 139.597818,56.8334545 C140.201455,57.4249697 140.211152,58.3934545 139.619636,58.9970909 C139.026909,59.6007273 138.058424,59.6104242 137.454788,59.0189091 C135.789333,57.3849697 133.588121,56.3873939 131.258424,56.208 C128.603879,56.0055758 126.040242,56.8443636 124.023273,58.5740606 C122.006303,60.3025455 120.783273,62.7134545 120.579636,65.3619394 C120.517818,66.1655758 119.847515,66.7752727 119.056,66.7752727" id="Fill-60" fill="#333709"></path>
                    <path d="M130.517091,79.1309091 C130.178909,79.1309091 129.840727,79.1175758 129.500121,79.0921212 C124.936485,78.7406061 120.972848,76.0933333 118.896485,72.009697 C118.513455,71.2569697 118.812848,70.3357576 119.566788,69.9527273 C120.320727,69.5709091 121.240727,69.8690909 121.623758,70.6230303 C123.212848,73.7466667 126.244364,75.7721212 129.734061,76.04 C132.389818,76.2412121 134.952242,75.4036364 136.969212,73.6751515 C138.986182,71.9454545 140.209212,69.5345455 140.412848,66.8860606 C140.496485,65.790303 140.401939,64.7006061 140.131636,63.6448485 C139.920727,62.8266667 140.414061,61.9927273 141.232242,61.7830303 C142.051636,61.5721212 142.884364,62.0654545 143.095273,62.8836364 C143.450424,64.2654545 143.574061,65.6909091 143.463758,67.1212121 C143.197091,70.5842424 141.598303,73.7369697 138.961939,75.9975758 C136.582545,78.0375758 133.616485,79.1309091 130.517091,79.1309091" id="Fill-62" fill="#333709"></path>
                </g>
            </g>
        </g>
    </g>
</svg>